<svg xmlns="http://www.w3.org/2000/svg" viewBox="0 0 689.14 104.5" fill="currentColor">
  <path d="M0 76.12V6.38C0 2.86 1.98.88 5.39.88s5.39 1.98 5.39 5.5v29.26H50.6V6.38c0-3.52 1.98-5.5 5.39-5.5s5.39 1.98 5.39 5.5v69.74c0 3.52-1.98 5.5-5.39 5.5s-5.39-1.98-5.39-5.5V44.88H10.78v31.24c0 3.52-1.87 5.5-5.39 5.5S0 79.64 0 76.12ZM72.16 7.81v-.66c0-3.96 2.42-6.27 5.72-6.27s5.72 2.31 5.72 6.27v.66c0 3.96-2.42 6.27-5.72 6.27s-5.72-2.31-5.72-6.27Zm.66 68.53V29.26c0-3.3 1.98-5.28 5.06-5.28s5.06 1.98 5.06 5.28v47.08c0 3.3-1.98 5.28-5.06 5.28s-5.06-1.98-5.06-5.28ZM90.86 64.9c0-2.86 1.87-4.84 4.62-4.84s3.74 1.76 4.73 4.62c2.53 7.26 7.92 9.24 14.96 9.24 7.81 0 12.21-2.64 12.21-7.92s-4.29-6.93-9.57-8.03l-9.24-1.98c-7.7-1.65-16.06-6.71-16.06-16.17s8.8-16.72 21.78-16.72c13.86 0 22.88 8.36 22.88 17.16 0 2.97-2.09 4.62-4.62 4.62s-4.07-1.32-4.84-4.07c-1.43-5.61-5.61-9.13-13.42-9.13-6.71 0-11.44 2.64-11.44 7.48 0 4.51 3.85 6.82 9.24 7.92l9.24 1.98c9.02 1.98 16.39 7.26 16.39 16.5 0 10.67-9.9 16.94-22.55 16.94-17.6 0-24.31-11.99-24.31-17.6ZM148.61 66.88V33h-5.72c-2.75 0-4.84-1.54-4.84-4.29s2.09-4.29 4.84-4.29h5.72v-8.91c0-3.3 1.98-5.28 5.06-5.28s5.06 1.98 5.06 5.28l-.11 8.91h7.92c2.75 0 4.84 1.54 4.84 4.29S169.29 33 166.54 33h-7.81v33.66c0 4.84 2.42 7.04 5.94 7.04 1.98 0 2.86-.55 4.4-.55 2.2 0 4.07 1.76 4.07 4.07 0 3.52-4.62 5.28-9.24 5.28-10.78 0-15.29-7.37-15.29-15.62Z"/>
  <path d="M172.47 52.8c0-17.38 10.56-29.7 27.5-29.7s27.5 12.32 27.5 29.7-10.56 29.7-27.5 29.7-27.5-12.32-27.5-29.7Zm44.66 0c0-12.54-6.6-20.9-17.16-20.9s-17.16 8.36-17.16 20.9 6.6 20.9 17.16 20.9 17.16-8.36 17.16-20.9ZM235.17 76.34V29.26c0-3.19 1.98-5.28 4.95-5.28s4.95 2.09 4.95 5.28v.99c4.62-5.28 9.57-7.15 14.63-7.15 4.51 0 9.35 1.54 9.35 5.61 0 2.42-1.87 4.29-4.29 4.29-1.43 0-2.75-.66-5.5-.66-8.25 0-13.97 6.05-13.97 16.72v27.28c0 3.3-1.98 5.28-5.06 5.28s-5.06-1.98-5.06-5.28ZM269.71 98.78c0-2.64 2.09-4.4 4.4-4.4s3.52 1.32 6.27 1.32c4.73 0 8.36-5.72 10.78-13.31l-18.7-49.83c-.55-1.43-.88-2.53-.88-3.63 0-2.86 2.42-4.95 5.17-4.95 3.41 0 4.62 2.42 5.5 4.95l14.19 41.47h.66l14.19-41.47c.88-2.53 2.2-4.95 5.39-4.95 2.64 0 4.84 1.87 4.84 4.95 0 1.1-.33 2.2-.88 3.63l-18.37 48.62c-5.5 14.52-11.33 23.32-22.55 23.32-5.83 0-10.01-2.2-10.01-5.72ZM337.58 52.8c0-17.38 10.56-29.7 27.5-29.7s27.5 12.32 27.5 29.7-10.56 29.7-27.5 29.7-27.5-12.32-27.5-29.7Zm44.66 0c0-12.54-6.6-20.9-17.16-20.9s-17.16 8.36-17.16 20.9 6.6 20.9 17.16 20.9 17.16-8.36 17.16-20.9ZM404.24 76.34V32.78h-5.72c-2.75 0-4.84-1.54-4.84-4.18s2.09-4.18 4.84-4.18h5.72v-8.8c0-7.81 4.95-15.62 15.4-15.62 5.17 0 9.24 1.98 9.24 5.39 0 2.31-1.87 3.96-4.07 3.96-1.54 0-2.31-.55-4.29-.55-3.85 0-6.16 2.09-6.16 7.04v8.58h7.48c2.75 0 4.84 1.54 4.84 4.18s-2.09 4.18-4.84 4.18h-7.48v43.56c0 3.3-1.98 5.28-5.06 5.28s-5.06-1.98-5.06-5.28ZM444.28 59.62c0-3.74 2.53-6.05 5.72-6.05 2.97 0 4.95 1.98 5.72 5.06 2.53 9.46 8.47 14.19 19.25 14.19s17.93-4.4 17.93-12.43c0-6.93-5.28-11.11-13.2-13.09L466.61 44c-9.02-2.31-20.46-8.36-20.46-21.67S457.15 0 474.64 0c23.21 0 29.26 16.17 29.26 22 0 3.52-2.2 5.94-5.61 5.94-2.64 0-4.73-1.43-5.83-5.39-2.75-9.79-9.02-12.87-18.04-12.87s-17.05 3.41-17.05 12.43c0 7.59 5.61 10.34 13.31 12.32l13.09 3.41c10.01 2.64 20.35 8.69 20.35 21.89 0 14.3-12.32 22.77-29.59 22.77-23.76 0-30.25-16.5-30.25-22.88ZM508.52 65.01c0-13.97 15.51-18.7 28.82-19.36l8.25-.44v-1.65c0-8.47-5.17-11.66-12.98-11.66-5.61 0-10.12 1.65-13.42 8.58-.88 1.98-2.42 3.3-4.73 3.3-2.86 0-4.62-2.09-4.62-4.84 0-4.18 6.16-15.84 22.77-15.84 13.31 0 22.88 7.26 22.88 19.91v21.01c0 4.4.22 8.8.55 11.88.33 3.52-1.54 5.72-4.73 5.72-2.86 0-4.62-1.87-4.84-5.5l-.11-2.09c-5.28 6.38-12.43 8.47-18.59 8.47-11.55 0-19.25-7.48-19.25-17.49Zm37.07-8.8v-2.42l-6.27.33c-8.14.44-20.68 2.31-20.68 11.11 0 4.95 3.96 8.47 10.34 8.47 8.36 0 16.61-6.05 16.61-17.49ZM565.72 76.34V6.16c0-3.3 1.98-5.28 5.06-5.28s5.06 1.98 5.06 5.28v70.18c0 3.3-1.98 5.28-5.06 5.28s-5.06-1.98-5.06-5.28ZM583.98 65.01c0-13.97 15.51-18.7 28.82-19.36l8.25-.44v-1.65c0-8.47-5.17-11.66-12.98-11.66-5.61 0-10.12 1.65-13.42 8.58-.88 1.98-2.42 3.3-4.73 3.3-2.86 0-4.62-2.09-4.62-4.84 0-4.18 6.16-15.84 22.77-15.84 13.31 0 22.88 7.26 22.88 19.91v21.01c0 4.4.22 8.8.55 11.88.33 3.52-1.54 5.72-4.73 5.72-2.86 0-4.62-1.87-4.84-5.5l-.11-2.09c-5.28 6.38-12.43 8.47-18.59 8.47-11.55 0-19.25-7.48-19.25-17.49Zm37.07-8.8v-2.42l-6.27.33c-8.14.44-20.68 2.31-20.68 11.11 0 4.95 3.96 8.47 10.34 8.47 8.36 0 16.61-6.05 16.61-17.49ZM637.66 52.8c0-17.27 8.47-29.7 23.87-29.7 6.82 0 12.87 2.31 17.49 7.81V6.16c0-3.3 1.98-5.28 5.06-5.28s5.06 1.98 5.06 5.28v70.18c0 3.19-1.98 5.28-4.95 5.28s-4.95-2.09-4.95-5.28v-1.98c-4.62 5.61-10.89 8.14-16.83 8.14-14.41 0-24.75-11.11-24.75-29.7Zm41.58 0c0-13.53-6.27-21.12-15.62-21.12S648 39.27 648 52.8s6.27 21.12 15.62 21.12 15.62-7.59 15.62-21.12Z"/>
</svg>