<svg xmlns="http://www.w3.org/2000/svg" viewBox="0 0 440.68 224.31" id="arugula">
  <path fill="none" stroke="currentColor" stroke-miterlimit="10" d="M2.11 24.95.65 19.87l22.02-2.2 25.11.11 22.08 4.74 26.78 10.37 32.31 11.09 8.36 5.54 17.66 3.47 11.5-1.22 6.05-6.1-.11-5.07 4.07-5.67 2.8-5.91 1.17-4.25 14.1-10.97 2.95-8.5-.85-2.94 5.34-1.81 3.87 2.49-.23 6.52.43 5.13 1.86 6.96-4.3 12.65-4.82 7.25.11 4.02-4.04 8.37.16 8.36.35 4.85 2.94 2.91 10.37 4.21 11.59 2.21 10.87 5.42 9.99 2.37 3.88-1.12 3.42-5.33 4.72-3.92 1.66-2.58 5.14-2.98 11.92-12.29 6.56.36 11.33-7.03 10.04-2.14 6.35 3.27-1.06 6.76-2.74 4.54-2.89 8.19-5.66 4.34-7.65 11.96-7.53 9.82-.86 4.31 4.5 9.36 8.1 4.12 8.76 2.27 7.79-4.2 9.51-9.19 6.09-4.91 9.5-10.25 2.63-2.86 13.95-4.17 7.82 3.15 9.62 3.68 7.94 1.01 6.3 4.34 10.85 10.38 3.67 6.45 2.83 9.83 6.2 7.97 11.49 15.9 8.5 6.56 3.44 11.94 1.03 11.38 3.21 7.48 8.65 13.87-.85 5.35-3.88 2.17-2.14 7.67-6.75 4.2-9.17-.06-11.29.41-12.97 2.39-7.26 4.49-7.21-.02-19.65 2.66-4.99-1.71-13.31-7.12-7.92-4.02-13.86-12.66-6.25-5.55-3.5-5.9-2.78-8.06-1.97-14.13 1.95-13.03-.73-6.69-2.57-5.26-12.2-5.34-3.96-.21-7.74 2.83-3.13 9.46-1.02 11.55-7.08 10.3-1.79 15.68-1.47 5.82-5.65 4.34-7.61.69-6.74-3.48-7.23-4.35-3.38-8.63-.34-6.36-.74-4.14-.85-13.86.84-12.7 2.81-10.57-.2-8.5 2.2-6.94-1.88-6.51-4.09-5.87-10.7-6.37-13.11-8.53-3.71-.88-5.95 2.77-2.08 9.45-3.23 9.71-.79 6.01 1 7.73-2.43 9.19-.66 6.05-1.96 7.77-3.29 4.7-2.55 3.14-7.03 1.12-4.84-.1-3.56-.93-4.08-7.38-1.2-13.01-.68-9.11-.18-14.66 2.99-18.27-3.07-15.33-6.18-9.47-5.9-5.35-10.41-5.41-12.1-5.51-13.15-5.52-3.82-.25-.91 2.07 2.31 13.74 2.71 6.27 6.96 8.5-5.28-2.68-6.87-5.07-4.58-10.69-3.14-11.4-4.41-5.93-5.79-3.44-11.49-4.94-2.99 6.27-3.29 2.14.9-6.26.52-3.9-10.24-2.75-10.63-2.49-6.78-.6.07 3.89 1.91 8.15L45.05 32l-1.76-3.99-1.22-4.76-5.21-.89-18.88.64-15.87 1.95z"/>
</svg>