<svg xmlns="http://www.w3.org/2000/svg" viewBox="0 0 644.2 270.44" id="asparagus">
  <path fill="none" stroke="currentColor" stroke-miterlimit="10" d="M.67 217.89.5 244.4l4 20.19 5.83 5.31 27.9-6.04 56.37-17.95 36.12-9.21 10.63.62 16.83-10.26 38.46-12.94 77.37-22.28 83.13-32.05 16.68-4.32 42.97-19.63 51.68-22.76 42-20.91 43.25-29.91 11.77 1.13 11.2-5.26L593.01 49l11.83-3.61 20.68-17.42 10.42-13 5.88-8.4 1.71-5.38L628.15.5l-28.22 5.21-14.17 7.36-17.52 1.09-21.31 15.77-.25 6.71-22.02 6.6-13.72 10.96-25.36 12.61-18.54 3.37-9.93 8.55-92.93 35.83-68.38 23.54-22.46 2.99-19.61 10.4-101.67 27.86-47.45 11.68-39.09 11.3-29.04 5.53L.67 217.89z"/>
</svg>