<svg xmlns="http://www.w3.org/2000/svg" viewBox="0 0 226.12 588.3" id="carrot">
  <path fill="none" stroke="currentColor" stroke-miterlimit="10" d="m216.46 567.89-18.63 6.09-12.25 4-27.61 9.02-13.84.79-11.32-6.96-9.35-15.58-5.79-8.76-9.9-30.3-7.06-11.03-10.49-27.21-3.69-25.16-9.63-35.2-4.05-18.92-11.56-32.97-5.41-19.8-4.8-26.13-7.22-24.54-.43-20.1-2.34-24.27-3.28-12.51-7.93-25.9-2.27-9.38 1.13-13.68-3.85-11.8-2.59-9.54 3.4-18.95.4-26.5.92-19.2-3.25-18.91.55-10.57 1.92-12.88-5.2-13.48-4.01-12.27-4.72-14.44-4.44-6.27-3.08-7.78L.52 7.81l.99-4.72L3.61.54l4.64.75 3.15 8.82 10.25 11.83 8.84 8.3 5.6 13.89 11.68 13.76 15.07 50.2 3.92 13.63 5.2 39.58 15.37 39.72 8.93 19.19 7.14 10.45 24.74 77.4.26 10.57 5.64 19.73 9.21 12.7 13.8 21.86 5.08 19.65 14.05 47.07 11.02 16.64 8.33 13.26 13.59 15.53 9.46 24.08 7.03 28.86-3.86 15.91-5.29 13.97z"/>
</svg>