<svg xmlns="http://www.w3.org/2000/svg" viewBox="0 0 589.57 122.66" id="cucumber">
  <path fill="none" stroke="currentColor" stroke-miterlimit="10" d="m569.79 19.42 16.9-.82 2.26 8.26-5.9 1.61-12.37 3.4-1.29 9.23-2.09 6.28-8.04 5.38-10.56 5.43-16.78 4.6-19.16 7.78-16.18 4.44L464 80.13l-25.42 4.43-23.23 3.19-30.96 2.78-30.52 5.82-32.94 3.32-31.76 6.8-24.14 2.17-20.6 1.21-13.57 3.72-32.99 4.6-34.82 2.56-23.72 1.43-50.22-2.73-36.98-7.63-15.73-6.47-12.18-7.45-9.08-7.66-8.22-9.16-4.36-8.96-2.03-7.43 3.73-9.53 9.8-12.83 12.12-9.03 16.62-6.46 42.59-6.6 52.15-4.14 37.99-.26 27.53 3.24 31.44-1 17.22.35 8.85-2.42 41.53-1.23 11.43.04 23.55-2.02 32.14-3.09 10.08-.23 13.63-1.2 20.34.14 19.36-3.41 22.86.08 17-2.75 22.7-.51 11.69-1.3 18.04 3.3 23.6.51 11.65 3.15 4.41 4.5 5.21 7.45z"/>
</svg>