<svg xmlns="http://www.w3.org/2000/svg" viewBox="0 0 61 98.24" id="olive">
  <defs>
    <style>
      .cls-1{fill:none;stroke:currentColor;stroke-miterlimit:10}
    </style>
  </defs>
  <path d="M22.35 2.66 30.96.51l10.35 1.07 8.73 3.54 5.23 8.92 3.08 11.39 2.15 24v9.5l-3.07 15.73-4.62 12.62-4.62 5.84-5.53 3.08-7.7 1.54h-7.89l-6.57-2.77-8-7.39L6.35 76.2 1.73 63.58.5 45.74l1.85-15.39 2.77-11.07 4.92-8.62 4.92-4.92 7.39-3.08z" class="cls-1"/>
  <path d="m23.58 10.04 4-1.84 4.31-.92h4.8l3.08 1.38 1.66 3.54-1.54 3.69-4.31 1.54H30.5l-4.46-1.85-3.21-3.23.75-2.31z" class="cls-1"/>
</svg>