<svg xmlns="http://www.w3.org/2000/svg" viewBox="0 0 182.99 233.77" id="radish">
  <path fill="none" stroke="currentColor" stroke-miterlimit="10" d="M174.68 101.54 159.41 83l-16.19-7.07-16.27-6.11L138.8 57.3l6.95-12.91 7.03-13.87 7.26-16.73 1.39-2.92c-3.61-1.1-7.2-2.27-10.78-3.47l-1.15 2.66-7.85 11.88 4.73-15.97c-.73-.24-1.45-.49-2.18-.73-2.67-.89-5.34-1.78-8.05-2.54-.2-.06-.4-.1-.61-.16l-7.4 27.94-.27-21.18-1.49-7.79c-.63-.05-1.22-.08-1.69-.07-2.5.09-5 .22-7.5.27-1.94.03-3.88 0-5.82-.06l.75 7.35 1.02 24.13-2.8 10.36-7.27-32.33-3.16-10.12C96.06.79 92.21.57 88.34.52L90.93 15l-3.77-2.23-2.85-6.08c-.34.08-5.33 1.77-6.2 2.03l5.19 15.29 5.92 24.52-1.67 8.52-32.48-.68L27.32 70.5 6.26 99.59.51 122.21l3.2 33.92 14.51 28.1 24.24 17.33 21.92 9.45 4.51 5.24-.3 3.75 3.23 8.92 1.43 4.05 3.15.25.39-4.87-.6-4.86.46-5.73 7.09-2.32 19.67.61 25.02-4.73 23.68-12.53 19.7-24.39 9.75-23.27.93-23.97-7.8-25.64Z"/>
</svg>