<svg xmlns="http://www.w3.org/2000/svg" viewBox="0 0 532.06 252.49" id="romaine">
  <path fill="none" stroke="currentColor" stroke-miterlimit="10" d="m9.89 126.1-5.88 12.86-3.49 16.51 4.68 11.77 18.18 2.36 24.76 3.01H77.5l9.38 5.24 15.87 9.37 14.77 3.01 11.11 10.48h15.34l15.29 3.65 7.62 6.35h16.5l14.14 7.78 11.11 17.62 18.26-3.65 22.96 3.65 20.06-3.65 14.13-5.87 9.36 5.87 4.32 8.9 13.3 4.12h29.42l17.1 3.49 25.87 3.01 13.5-3.01 28.89-5.24 27.54-6.49 24.68-8.75 26.2-16.51 17.62-15.87 7.78-14.13-4.13-15.4 4.13-9.33v-20.7l-1.75-7.43 3.65-10.48-4.76-11.11-6.83-6.51-11.43-2.54-.31-8.26-9.85-18.57-19.84-22.06-19.37-15.72-21.59-12.38-9.84-8.26-28.25-8.09h-7.94L383.57.53l-9.68 2.38-11.59 2.86-10 4.13-7.94 2.38-6.98 4.45-10.8-3.34-21.75 1.75-10.16 9.84-4.76 9.21-13.49 4.12-10.4 9.92-8.97 2.47-13.81 9.68-8.57-1.9-7.62 4.44-11.27-4.44-15.88-3.66-5.24 19.37-7.14 7.78-8.73 7.14-13.33 1.91-7.78-3.81-5.4 6.35-7.78.79-7.78.8-5.71-1.91-7.46 11.27-12.7 2.54-11.91 5.72-12.38 1.74-7.46 4.13-11.11 2.22-18.74 8.26-16.19 3.49-23.17-6.51z"/>
</svg>