<svg id="Layer_2" xmlns="http://www.w3.org/2000/svg" viewBox="0 0 785.8 386.11">
  <g id="salad-ingredients">
    <path id="carrot" fill="none" stroke="currentColor" stroke-width="1" stroke-miterlimit="10" d="m751.08 265.54 3.85-23.76 2.52-15.61 5.7-35.2-1.67-16.94-10.58-12.42-20.68-8.38-11.73-5.37-38.62-6.25-14.74-6.48-34.98-7.55-31.22.3-44.54-5-23.71-1.32-42.19-7.77-25.06-2.8-32.6-.87-31.14-4.09-24.46 3.28-29.88 1.78-15.8-1.62-32.93-4.7-11.81-.96-16.38 3.96-15.04-2.44-12.06-1.32-22.35 7.72-32.06 5.51-23.13 4.76-23.56-.35-12.71 2.67-15.25 4.77-17.34-3.75-15.65-2.53-18.41-2.98-8.45-4.2-10.03-2.26-11.72-3.47-5.53 2.1-2.7 3.03 1.79 5.48 11.31 2.15 16.29 10.19 11.75 9.14 17.9 4.16 18.91 11.56 63.76 8.75 17.28 2.16 49-1.2 51.1 11.11 24.97 7.19 14.03 6.68 98.6 15.32 12.86-1.69 25.01 3.1 17.16 8.76 29.13 12.59 24.79 2.44 59.78 8.1 22.27 10.21 17.67 7.59 21.42 13.54 31 6.91 36.34 3.04 18.57-7.7 15.95-9.07z"/>
    <path id="asparagus" fill="none" stroke="currentColor" stroke-width="1" stroke-miterlimit="10" d="M3.28 259.85.5 291.21l2.77 24.27 6.38 6.86 33.6-4.43 68.45-15.75 43.64-7.37 12.52 1.77 20.91-10.5 46.77-11.57 93.73-18.82 101.49-29.82 20.15-3.49 52.76-19.03 63.37-21.89 51.73-20.66 54.1-31.17 13.82 2.48 13.76-5.13 20.2-9.21 14.35-3.13 26.17-18.59 13.6-14.36 7.78-9.38 2.54-6.2-18.13-2.31-33.9 3.42-17.48 7.32-20.84-.42-26.76 16.59-.95 7.91-26.69 5.67-17.31 11.63-31.24 12.45-22.26 2.18-12.58 9.15-113.45 33.34-83.22 21.19-26.87 1.35-24.21 10.39-123.02 23.06-57.28 9.2-47.37 9.56-34.9 3.71-43.35 8.37z"/>
    <path id="onion" fill="none" stroke="currentColor" stroke-width="1" stroke-miterlimit="10" d="m457.11 45.27 13.01-12.78 9.92-4.32 8.21-.84 3.97 4.04-2.25 6.91-3.79 16.36-2.97 26.39 3.41 25.54 3.36 31.01 8.04 17.38 17.87 38.43 7.01 31.04-.62 28.59-8.1 28.72-18.49 28.99-22.95 18.92-21.07 13.47-30 8.69-27.52 4.46-22.79 2.52-25.51-.23-5.45-1.87-11.77-8.31-29.79-30.33-5.4-7.34-.85-6.39-10.83-11.03-5.28-20.09-6.17-22.83-3.37-31.01-2.57-17.33-1.67-16.41 3.76-12.72 10.16-15.4 18.43-23.52L318 115.06l28.36-13.41 31.03-5.18 20.09-5.28 19.22-9.85 22.93-17.1 17.48-18.97z"/>
    <path id="cucumber" fill="none" stroke="currentColor" stroke-width="1" stroke-miterlimit="10" d="m731.98 11.06 21.23-9.43 6.99 9.47-6.76 4.98-14.16 10.48 2.91 12.46.44 9.07-7.64 10.86-10.83 12.19-19.21 14.19-20.68 19.46-18.53 13.69-39.18 22.68-30.37 18.26-28.16 15.59-38.27 18.88-36.21 22.57-40.53 20.55-37.3 24.43-29.84 14.74-25.79 11.74-15.54 11.48-39.97 22.22-43.32 20.52-29.66 13.56-65.67 21.37-51.12 8.54-23.35-.5-19.29-3.5-15.42-5.32-15.06-7.67-10.02-9.31-6.28-8.5.06-14.05 6.2-21.29 11.05-17.56 18.09-16.5 51.28-29.54 64.73-31.11 48.51-19.14 36.86-9.48 39.77-16.85 22.23-8.07 10.13-7.49 52.57-22.13 14.66-5.61 29.16-14.24 39.62-19.87 12.8-5.29 16.86-8.27 26.11-9.9 23.11-13.94 29.31-11.21 20.41-11.95 28.81-11.89 14.34-7.46 24.72-4.69 30.49-11.04L713.74.51l7.87 3.59 10.37 6.96z"/>
    <path id="avocado" fill="none" stroke="currentColor" stroke-width="1" stroke-miterlimit="10" d="m572.24 179.57 141.52 54.09-9.47 34.22-14.62 33.9-42.79 44.54-78.83 31.32-83.47 5.35-82.44-21.25-92.34-52.97-55.86-46.13-74.72-70.49-54.24-62.44-40.29-62.08-12.86-31.57 1.68-20.92 4.41-12.01 262.52 96.61-3.07 18.77 11.35 29.25 32.47 42.99 33.63 31.84 40.55 9.6 39.57 2.21 37.02-8.77 18.25-11.84 16.22-19.67 5.81-14.55z"/>
    <path id="spinach" fill="none" stroke="currentColor" stroke-width="1" stroke-miterlimit="10" d="m284.06 333.75-.34 5.92 3.64 3.82 5.95 2.88 8.61-6.96 17.5-19.69 19.18-24.07 16.64-25.89 13.73-20.48 9.78-9.5 5.99-2.29 8.91 1.78 10.38 5.01 16.21 1.6 14.86.21 8.29-4.29 5.75-7 4.24-3.88 5.09-10.54 8.68-7.25 7.77-7.8 8.81-14.27 4.15-8.58 4.63-12.36 3.97-5.47.96-8.74 1.33-11.65 2.26-8.69.84-8.48-.49-14.01-1.54-7.56-.33-6.68-.51-6.31.48-8.36-1.78-7.97-3.97-6.51-4.82-7.51-5.1-6.77-7.43-6.54-10.54-5.09-16.02-4.03-14.59 1.7-12.96 3.22-10.87 4.09-7.88 3.75-11.56 5.53-10.36 5.81-12.02 6.2-8.07 7.81-10.02 12.78-6.25 12.95-7.37 11.29-4.14 11.33-4.52 17.96-2.44 9.05-.89 9.2.17 11.93-.48 8.95-2.14 8.74-2.01 5.4.08 5.97 2.01 7.19 6.25 7.31 6.33 5.28 8.3 4.3 6.89 1.99 6.15 5.05.89 3.98-3.06 7.26-6.6 10-13.91 20.84L324 292.75l-12.13 15.92-10.58 11.48-11.48 11.2-5.75 2.4z"/>
    <path id="arugula" fill="none" stroke="currentColor" stroke-width="1" stroke-miterlimit="10" d="m713.25 327.03 2.06 7.52-32.54 2.83-37.02-.65-32.49-7.41-39.3-15.79-47.47-16.98-12.22-8.34-25.98-5.45-17 1.58-9.03 8.88.06 7.48-6.1 8.3-4.24 8.66-1.82 6.24-21.01 15.91-4.51 12.49 1.19 4.35-7.9 2.57-5.66-3.74.45-9.61-.53-7.58-2.61-10.31 6.59-18.58 7.24-10.59-.08-5.94 6.12-12.27-.08-12.33-.42-7.17-4.28-4.34-15.22-6.41-17.06-3.48-15.93-8.21-14.7-3.69-5.74 1.58-5.14 7.81-7.04 5.68-2.5 3.78-7.64 4.3-17.81 17.91-9.67-.66-16.85 10.14-14.85 2.98-9.3-4.95 1.68-9.95 4.13-6.65 4.42-12.03 8.43-6.28 11.52-17.51 11.28-14.35 1.36-6.32-6.47-13.9-11.86-6.23-12.88-3.52-11.58 6.04-14.19 13.39-9.08 7.12-14.21 14.94-3.94 4.16-20.66 5.9-11.47-4.8-14.12-5.61-11.7-1.64-9.21-6.52-15.81-15.52-5.28-9.58-4-14.57-8.99-11.87-16.65-23.67-12.41-9.84-4.85-17.67-1.31-16.82-4.59-11.1-12.5-20.62 1.37-7.87 5.76-3.13 3.31-11.28 10.03-6.06 13.53.26 16.66-.38 19.18-3.28 10.79-6.49 10.64.17 29.03-3.56 7.34 2.62 19.5 10.75 11.6 6.09 20.2 18.94 9.12 8.31 5.05 8.76 3.94 11.94 2.65 20.9-3.12 19.17.95 9.88 3.68 7.82 17.9 8.1 5.84.39 11.47-4.03 4.79-13.9 1.73-17.02 10.64-15.06 2.93-23.08 2.29-8.57 8.42-6.29 11.23-.87 9.89 5.25 10.57 6.56 4.83 12.8.37 9.38 1.02 6.12.98 20.47-1.48 18.72-4.34 15.53.13 12.54-3.38 10.2 2.65 9.64 5.93 8.74 15.66 9.61 19.18 12.82 5.45 1.38 8.84-3.97 3.24-13.91 4.95-14.27 1.29-8.85-1.34-11.42 3.76-13.51 1.09-8.9 3.04-11.43 4.95-6.87 3.82-4.58 10.39-1.53 7.13.25 5.25 1.43 5.87 10.96 1.53 19.22.82 13.45-.02 21.63-4.75 26.9 4.23 22.66 8.95 14.1 8.59 8.01 15.26 8.17 17.75 8.36 19.29 8.39 5.63.44 1.38-3.03-3.15-20.31-3.88-9.31-10.1-12.67 7.74 4.05 10.03 7.62 6.56 15.85 4.41 16.88 6.4 8.84 8.48 5.17 16.84 7.51 4.54-9.19 4.88-3.1-1.44 9.22-.85 5.75 15.07 4.25 15.63 3.87 9.98 1.01-.03-5.73-2.65-12.07 4.45 4.96 2.51 5.93 1.71 7.03 7.67 1.43 27.86-.59 23.46-2.58z"/>
  </g>
</svg>