<svg id="Layer_2" xmlns="http://www.w3.org/2000/svg" viewBox="0 0 1227.53 958.42">
  <g>
    <path id="carrot" d="m1217.86 725.73-18.63 6.08-12.25 4-27.6 9.02-13.84.79-11.33-6.95-9.35-15.59-5.79-8.76-9.89-30.29-7.07-11.04-10.48-27.21-3.69-25.15-9.64-35.21-4.04-18.91-11.57-32.98-5.4-19.8-4.81-26.13-7.21-24.54-.44-20.1-2.34-24.27-3.28-12.5-7.93-25.91-2.26-9.38 1.12-13.68-3.85-11.79-2.58-9.55 3.39-18.95.4-26.49.92-19.21-3.25-18.91.55-10.57 1.92-12.87-5.2-13.48-4.01-12.28-4.72-14.44-4.44-6.27-3.08-7.78-4.26-8.99.99-4.72 2.09-2.55 4.64.75 3.15 8.82 10.25 11.84 8.84 8.29 5.6 13.89 11.68 13.76 15.07 50.2 3.92 13.64 5.2 39.57 15.37 39.72 8.93 19.19 7.14 10.45 24.75 77.4.25 10.57 5.65 19.73 9.2 12.71 13.8 21.85 5.08 19.65 14.05 47.08 11.02 16.63 8.33 13.26 13.59 15.54 9.46 24.07 7.03 28.86-3.86 15.91-5.29 13.98z"/>
    <path id="spinach" d="m963.69 55.75.33-5.91-3.63-3.83-5.95-2.87-8.61 6.95-17.5 19.7-19.18 24.07-16.64 25.89-13.73 20.48-9.77 9.5-6 2.29-8.91-1.78-10.37-5.01-16.21-1.6-14.86-.21-8.3 4.29-5.74 7-4.25 3.88-5.08 10.54-8.69 7.26-7.76 7.8-8.81 14.26-4.15 8.59-4.63 12.36-3.97 5.47-.96 8.74-1.33 11.65-2.26 8.69-.84 8.48.5 14.01 1.53 7.56.34 6.68.5 6.31-.48 8.36 1.78 7.97 3.97 6.51 4.82 7.51 5.11 6.76 7.43 6.55 10.53 5.08 16.03 4.03 14.59-1.69 12.96-3.23 10.86-4.09 7.89-3.75 11.55-5.53 10.36-5.81 12.03-6.2 8.06-7.81 10.02-12.79 6.25-12.94 7.38-11.29 4.13-11.33 4.52-17.97 2.44-9.04.89-9.2-.17-11.93.47-8.96 2.15-8.74 2.01-5.4-.08-5.96-2.01-7.19-6.25-7.31-6.34-5.28-8.29-4.3-6.89-1.99-6.16-5.05-.89-3.98 3.06-7.27 6.6-9.99L913 112.9l10.75-16.14 12.13-15.92 10.58-11.49 11.48-11.19 5.75-2.41z"/>
    <path id="romaine" d="m399.32 948.8 8.94-7.2 8.54-10.72.88-10.25-12.34-8.32-16.89-11.2-21.32-10.68-4.9-7.21-8.13-12.57-9.62-7.56-4.26-11.65-11.14-5.58-9.78-8.22-3.23-7.38-11.98-6-7.44-10.79-1.66-16.84-14.58-3.99-15.35-11-15.9-4.64-12.39-.87-4.67-7.68.1-8.03-8.16-7.83-21.36-10.69-11.15-8.76-17.69-11.6-10.9-2.72-22.88-6.7-22.37-5.3-21.1-2.62-25.03 2.46-18.57 5.12-10.79 7.43-2.6 12.68-6.39 5.28-7.53 15.03-1.43 6.03-6.46 6.29-.59 9.8 2.59 7.21 7.38 6-2.77 6.11.39 17.06 6.39 23.25 8.35 18.45 11.17 16.85 4.15 9.57 17.57 16.15 5.76 2.89 4.1 6.23 7.9 1.79 9.45 2.14 8.76.64 6.63 1.16 6.69-.69 6.63 6.35 16.43 6.64 10.96-3.45 6.8-4.96 11.3 1.91 11.16-3.42 7.41 1.47 13.55-2.01 5.53 4.5 7.15-.45 6.57 7.33 10.2 8.42 10.85-12.16 8.02-3.05 8.94-2.01 10.37 3.46 4.27 5.6 6.22-2.65 5.94 2.25 5.94 2.25 3.46 3.47 9.51-5.48 10.15 2.78 10.72.18 9.63 3.23 6.92-.28 8.88 2.43 16.6.81 13.03 3.36 14.47 13.15z"/>
    <path id="avocado" d="m574.9 258.9 79.31 27.69-4.69 19.13-7.56 19.02-22.99 25.38-43.19 18.63-46.18 4.31-46.03-10.44-52.03-27.87-31.71-24.66-42.56-37.87-31.07-33.72-23.33-33.76-7.63-17.29.59-11.63 2.25-6.72 147.06 49.3-1.4 10.45 6.76 16.03 18.7 23.31 19.15 17.1 22.63 4.66 21.97.59 20.37-5.46 9.93-6.85 8.67-11.17 2.98-8.16z"/>
    <path id="cucumber" d="m569.79 19.42 16.9-.82 2.26 8.26-5.9 1.61-12.37 3.4-1.29 9.23-2.09 6.28-8.04 5.38-10.56 5.43-16.78 4.6-19.16 7.78-16.18 4.44L464 80.13l-25.42 4.43-23.23 3.19-30.96 2.78-30.52 5.82-32.94 3.32-31.76 6.8-24.14 2.17-20.6 1.21-13.57 3.72-32.99 4.6-34.82 2.56-23.72 1.43-50.22-2.73-36.98-7.63-15.73-6.47-12.18-7.45-9.08-7.66-8.22-9.16-4.36-8.96-2.03-7.43 3.73-9.53 9.8-12.83 12.12-9.03 16.62-6.46 42.59-6.6 52.15-4.14 37.99-.26 27.53 3.24 31.44-1 17.22.35 8.85-2.42 41.53-1.23 11.43.04 23.55-2.02 32.14-3.09 10.08-.23 13.63-1.2 20.34.14 19.36-3.41 22.86.08 17-2.75 22.7-.51 11.69-1.3 18.04 3.3 23.6.51 11.65 3.15 4.41 4.5 5.21 7.45z"/>
    <path id="onion" d="M946.1 721.92v-14.15l3-7.85 4-5h4.4l2.6 5 7 11 13 16 16 12 19 15 14 5 31 11 21 13 15.5 15.89 11.5 20.11 6 26-2 23-4 19-11.5 21.34-12.5 17.66-11 14-14 14-4 2-11 2h-33l-7-1-4-3h-12l-14-8-16-9-19-15-11-8-10-8-5-9-3-14-3-23 2-23 8-23 14-20 8-14 5-16 3-22-1-20z"/>
    <g id="olive">
      <path d="m1143.45 75.46 8.61-2.16 10.36 1.08 8.72 3.54 5.23 8.92 3.08 11.39 2.15 24v9.49l-3.07 15.74-4.62 12.61-4.61 5.85-5.54 3.08-7.7 1.53h-7.89l-6.57-2.76-8-7.39-6.15-11.38-4.62-12.62-1.23-17.85 1.85-15.38 2.77-11.08 4.92-8.61 4.92-4.93 7.39-3.07z"/>
      <path d="m1144.68 82.84 4-1.84 4.31-.93h4.81l3.08 1.39 1.65 3.54-1.54 3.69-4.31 1.54h-5.08l-4.46-1.85-3.21-3.23.75-2.31z"/>
    </g>
    <path id="arugula" d="m884.66 740.29 1.68 5-21.91 3.16-25.09.96-22.26-3.79-27.2-9.2-32.76-9.7-8.59-5.18-17.79-2.7-11.44 1.71-5.78 6.35.33 5.06-3.82 5.85-2.55 6.02-.99 4.29-13.61 11.57-2.59 8.62.97 2.9-5.24 2.04-3.98-2.32-.06-6.52-.64-5.11-2.16-6.88 3.76-12.83 4.5-7.44-.28-4.01 3.67-8.54-.51-8.34-.56-4.84-3.06-2.77-10.54-3.77-11.68-1.71-11.1-4.95-10.08-1.94-3.83 1.29-3.18 5.48-4.55 4.11-1.55 2.65-5.01 3.2-11.37 12.79-6.57-.07-11.02 7.5-9.94 2.57-6.48-3 .76-6.79 2.54-4.66 2.54-8.31 5.47-4.57 7.13-12.28 7.1-10.14.67-4.33-4.9-9.16-8.26-3.77-8.85-1.9-7.61 4.53-9.1 9.6-5.87 5.16-9.06 10.65-2.5 2.97-13.76 4.77-7.95-2.81-9.76-3.27-7.98-.67-6.48-4.06-11.29-9.9-3.94-6.29-3.26-9.71-6.53-7.69-12.16-15.39-8.77-6.19-3.96-11.78-1.52-11.33-3.52-7.34-9.24-13.48.63-5.38 3.78-2.33 1.81-7.76 6.55-4.48 9.17-.34 11.26-.89 12.86-2.94 7.06-4.81 7.2-.28 19.52-3.51 5.06 1.5 13.61 6.54 8.08 3.67 14.39 12.06 6.48 5.28 3.75 5.74 3.12 7.93 2.58 14.04-1.39 13.09 1.02 6.66 2.79 5.15 12.42 4.81 3.97.03 7.61-3.16 2.71-9.58.53-11.59 6.64-10.59 1.1-15.74 1.22-5.88 5.47-4.57 7.57-1.02 6.88 3.18 7.41 4.04 3.75 8.48.61 6.33.92 4.11 1.44 13.81-.29 12.73-2.35 10.68.56 8.48-1.9 7.02 2.15 6.43 4.35 5.69 10.96 5.91 13.47 7.95 3.74.73 5.83-3.02 1.67-9.54 2.8-9.84.54-6.04-1.34-7.68 2.04-9.28.39-6.07 1.63-7.85 3.09-4.84 2.41-3.24 6.98-1.43 4.83-.1 3.61.77 4.39 7.19 1.76 12.95 1.07 9.08.8 14.64-2.2 18.38 3.73 15.18 6.58 9.2 6.12 5.09 10.64 4.95 12.32 5 13.38 4.94 3.83.09.81-2.1-2.9-13.63-2.97-6.16-7.32-8.19 5.39 2.45 7.08 4.78 5.04 10.48 3.62 11.25 4.66 5.74 5.94 3.18 11.68 4.45 2.73-6.39 3.19-2.29-.63 6.3-.36 3.92 10.36 2.3 10.72 2.04 6.8.3-.24-3.87-2.25-8.07 3.2 3.18 1.92 3.92 1.43 4.7 5.24.67 18.84-1.45 15.77-2.63z"/>
    <path id="asparagus" d="m158.84 552.57-20.02 17.39-12.5 16.34-.14 7.88 22.96 16.96 50.72 30.46 30.77 21.03 6.56 8.4 18.82 5.85 35.12 20.32 67.84 43.37 78.98 41.23 14.26 9.67 43.12 19.29 51.22 23.76L590 852.24l51.03 12.72 6.93 9.58 11.34 4.93 17.63 6.22 10.53 6.49 26.74 4.02 16.64-.76 10.2-1.14 5.17-2.27-9.65-12-22.55-17.74-14.88-5.78-12.4-12.44-25.92-5.58-5.2 4.25-19.5-12.17-17.29-3.06-26.23-10.71-14.77-11.69-12.98-1.8-88.29-46.1-62.84-35.79-17.09-14.88-20.76-7.86-88.08-57.91-40.11-27.9-34.31-21.89-23.34-18.15-31.18-20.26z"/>
    <path id="radish" d="m190.59 316.61-11.77-14.29-12.48-5.45-12.54-4.71 9.13-9.65 5.36-9.95 5.41-10.69 5.59-12.9 1.07-2.25c-2.78-.84-5.55-1.75-8.31-2.67l-.89 2.05-6.05 9.15 3.65-12.31c-.56-.19-1.12-.38-1.68-.56-2.06-.69-4.11-1.38-6.2-1.96-.15-.04-.31-.08-.47-.12l-5.7 21.54-.21-16.33-1.15-6c-.49-.04-.94-.06-1.3-.05-1.93.07-3.85.17-5.78.21-1.5.03-2.99 0-4.49-.05l.57 5.67.79 18.6-2.16 7.98-5.6-24.91-2.44-7.8c-2.97-.19-5.94-.36-8.91-.4l2 11.16-2.9-1.72-2.19-4.69c-.26.06-4.11 1.36-4.78 1.57l4 11.78 4.56 18.9-1.29 6.57-25.03-.52-21.39 10.89-16.23 22.42-4.44 17.44 2.46 26.15 11.18 21.65 18.68 13.36 16.89 7.28 3.48 4.04-.23 2.89 2.49 6.87 1.1 3.12 2.43.19.3-3.75-.46-3.74.35-4.42 5.46-1.79 15.16.47 19.29-3.64 18.25-9.66 15.18-18.8 7.51-17.93.72-18.48-6.02-19.76Z"/>
    <g id="history-of-salad">
      <path d="M279.03 487.29v-69.74c0-3.52 1.98-5.5 5.39-5.5s5.39 1.98 5.39 5.5v29.26h39.82v-29.26c0-3.52 1.98-5.5 5.39-5.5s5.39 1.98 5.39 5.5v69.74c0 3.52-1.98 5.5-5.39 5.5s-5.39-1.98-5.39-5.5v-31.24h-39.82v31.24c0 3.52-1.87 5.5-5.39 5.5s-5.39-1.98-5.39-5.5ZM351.19 418.98v-.66c0-3.96 2.42-6.27 5.72-6.27s5.72 2.31 5.72 6.27v.66c0 3.96-2.42 6.27-5.72 6.27s-5.72-2.31-5.72-6.27Zm.66 68.53v-47.08c0-3.3 1.98-5.28 5.06-5.28s5.06 1.98 5.06 5.28v47.08c0 3.3-1.98 5.28-5.06 5.28s-5.06-1.98-5.06-5.28ZM369.89 476.07c0-2.86 1.87-4.84 4.62-4.84s3.74 1.76 4.73 4.62c2.53 7.26 7.92 9.24 14.96 9.24 7.81 0 12.21-2.64 12.21-7.92s-4.29-6.93-9.57-8.03l-9.24-1.98c-7.7-1.65-16.06-6.71-16.06-16.17s8.8-16.72 21.78-16.72c13.86 0 22.88 8.36 22.88 17.16 0 2.97-2.09 4.62-4.62 4.62s-4.07-1.32-4.84-4.07c-1.43-5.61-5.61-9.13-13.42-9.13-6.71 0-11.44 2.64-11.44 7.48 0 4.51 3.85 6.82 9.24 7.92l9.24 1.98c9.02 1.98 16.39 7.26 16.39 16.5 0 10.67-9.9 16.94-22.55 16.94-17.6 0-24.31-11.99-24.31-17.6ZM427.64 478.05v-33.88h-5.72c-2.75 0-4.84-1.54-4.84-4.29s2.09-4.29 4.84-4.29h5.72v-8.91c0-3.3 1.98-5.28 5.06-5.28s5.06 1.98 5.06 5.28l-.11 8.91h7.92c2.75 0 4.84 1.54 4.84 4.29s-2.09 4.29-4.84 4.29h-7.81v33.66c0 4.84 2.42 7.04 5.94 7.04 1.98 0 2.86-.55 4.4-.55 2.2 0 4.07 1.76 4.07 4.07 0 3.52-4.62 5.28-9.24 5.28-10.78 0-15.29-7.37-15.29-15.62Z"/>
      <path d="M451.51 463.97c0-17.38 10.56-29.7 27.5-29.7s27.5 12.32 27.5 29.7-10.56 29.7-27.5 29.7-27.5-12.32-27.5-29.7Zm44.66 0c0-12.54-6.6-20.9-17.16-20.9s-17.16 8.36-17.16 20.9 6.6 20.9 17.16 20.9 17.16-8.36 17.16-20.9ZM514.21 487.51v-47.08c0-3.19 1.98-5.28 4.95-5.28s4.95 2.09 4.95 5.28v.99c4.62-5.28 9.57-7.15 14.63-7.15 4.51 0 9.35 1.54 9.35 5.61 0 2.42-1.87 4.29-4.29 4.29-1.43 0-2.75-.66-5.5-.66-8.25 0-13.97 6.05-13.97 16.72v27.28c0 3.3-1.98 5.28-5.06 5.28s-5.06-1.98-5.06-5.28ZM548.75 509.95c0-2.64 2.09-4.4 4.4-4.4s3.52 1.32 6.27 1.32c4.73 0 8.36-5.72 10.78-13.31l-18.7-49.83c-.55-1.43-.88-2.53-.88-3.63 0-2.86 2.42-4.95 5.17-4.95 3.41 0 4.62 2.42 5.5 4.95l14.19 41.47h.66l14.19-41.47c.88-2.53 2.2-4.95 5.39-4.95 2.64 0 4.84 1.87 4.84 4.95 0 1.1-.33 2.2-.88 3.63l-18.37 48.62c-5.5 14.52-11.33 23.32-22.55 23.32-5.83 0-10.01-2.2-10.01-5.72ZM616.62 463.97c0-17.38 10.56-29.7 27.5-29.7s27.5 12.32 27.5 29.7-10.56 29.7-27.5 29.7-27.5-12.32-27.5-29.7Zm44.66 0c0-12.54-6.6-20.9-17.16-20.9s-17.16 8.36-17.16 20.9 6.6 20.9 17.16 20.9 17.16-8.36 17.16-20.9ZM683.28 487.51v-43.56h-5.72c-2.75 0-4.84-1.54-4.84-4.18s2.09-4.18 4.84-4.18h5.72v-8.8c0-7.81 4.95-15.62 15.4-15.62 5.17 0 9.24 1.98 9.24 5.39 0 2.31-1.87 3.96-4.07 3.96-1.54 0-2.31-.55-4.29-.55-3.85 0-6.16 2.09-6.16 7.04v8.58h7.48c2.75 0 4.84 1.54 4.84 4.18s-2.09 4.18-4.84 4.18h-7.48v43.56c0 3.3-1.98 5.28-5.06 5.28s-5.06-1.98-5.06-5.28ZM723.32 470.79c0-3.74 2.53-6.05 5.72-6.05 2.97 0 4.95 1.98 5.72 5.06 2.53 9.46 8.47 14.19 19.25 14.19s17.93-4.4 17.93-12.43c0-6.93-5.28-11.11-13.2-13.09l-13.09-3.3c-9.02-2.31-20.46-8.36-20.46-21.67s11-22.33 28.49-22.33c23.21 0 29.26 16.17 29.26 22 0 3.52-2.2 5.94-5.61 5.94-2.64 0-4.73-1.43-5.83-5.39-2.75-9.79-9.02-12.87-18.04-12.87s-17.05 3.41-17.05 12.43c0 7.59 5.61 10.34 13.31 12.32l13.09 3.41c10.01 2.64 20.35 8.69 20.35 21.89 0 14.3-12.32 22.77-29.59 22.77-23.76 0-30.25-16.5-30.25-22.88ZM787.56 476.18c0-13.97 15.51-18.7 28.82-19.36l8.25-.44v-1.65c0-8.47-5.17-11.66-12.98-11.66-5.61 0-10.12 1.65-13.42 8.58-.88 1.98-2.42 3.3-4.73 3.3-2.86 0-4.62-2.09-4.62-4.84 0-4.18 6.16-15.84 22.77-15.84 13.31 0 22.88 7.26 22.88 19.91v21.01c0 4.4.22 8.8.55 11.88.33 3.52-1.54 5.72-4.73 5.72-2.86 0-4.62-1.87-4.84-5.5l-.11-2.09c-5.28 6.38-12.43 8.47-18.59 8.47-11.55 0-19.25-7.48-19.25-17.49Zm37.07-8.8v-2.42l-6.27.33c-8.14.44-20.68 2.31-20.68 11.11 0 4.95 3.96 8.47 10.34 8.47 8.36 0 16.61-6.05 16.61-17.49ZM844.75 487.51v-70.18c0-3.3 1.98-5.28 5.06-5.28s5.06 1.98 5.06 5.28v70.18c0 3.3-1.98 5.28-5.06 5.28s-5.06-1.98-5.06-5.28ZM863.01 476.18c0-13.97 15.51-18.7 28.82-19.36l8.25-.44v-1.65c0-8.47-5.17-11.66-12.98-11.66-5.61 0-10.12 1.65-13.42 8.58-.88 1.98-2.42 3.3-4.73 3.3-2.86 0-4.62-2.09-4.62-4.84 0-4.18 6.16-15.84 22.77-15.84 13.31 0 22.88 7.26 22.88 19.91v21.01c0 4.4.22 8.8.55 11.88.33 3.52-1.54 5.72-4.73 5.72-2.86 0-4.62-1.87-4.84-5.5l-.11-2.09c-5.28 6.38-12.43 8.47-18.59 8.47-11.55 0-19.25-7.48-19.25-17.49Zm37.07-8.8v-2.42l-6.27.33c-8.14.44-20.68 2.31-20.68 11.11 0 4.95 3.96 8.47 10.34 8.47 8.36 0 16.61-6.05 16.61-17.49ZM916.69 463.97c0-17.27 8.47-29.7 23.87-29.7 6.82 0 12.87 2.31 17.49 7.81v-24.75c0-3.3 1.98-5.28 5.06-5.28s5.06 1.98 5.06 5.28v70.18c0 3.19-1.98 5.28-4.95 5.28s-4.95-2.09-4.95-5.28v-1.98c-4.62 5.61-10.89 8.14-16.83 8.14-14.41 0-24.75-11.11-24.75-29.7Zm41.58 0c0-13.53-6.27-21.12-15.62-21.12s-15.62 7.59-15.62 21.12 6.27 21.12 15.62 21.12 15.62-7.59 15.62-21.12Z"/>
    </g>
  </g>
</svg>