<svg id="salad" xmlns="http://www.w3.org/2000/svg" viewBox="0 0 880.43 501.28">
  <g id="salad-ingredients">
    <g id="history-of-salad" fill="currentColor" stroke="none">
      <path d="M94.1 472.9v-69.74c0-3.52 1.98-5.5 5.39-5.5s5.39 1.98 5.39 5.5v29.26h39.82v-29.26c0-3.52 1.98-5.5 5.39-5.5s5.39 1.98 5.39 5.5v69.74c0 3.52-1.98 5.5-5.39 5.5s-5.39-1.98-5.39-5.5v-31.24h-39.82v31.24c0 3.52-1.87 5.5-5.39 5.5s-5.39-1.98-5.39-5.5ZM166.26 404.59v-.66c0-3.96 2.42-6.27 5.72-6.27s5.72 2.31 5.72 6.27v.66c0 3.96-2.42 6.27-5.72 6.27s-5.72-2.31-5.72-6.27Zm.66 68.53v-47.08c0-3.3 1.98-5.28 5.06-5.28s5.06 1.98 5.06 5.28v47.08c0 3.3-1.98 5.28-5.06 5.28s-5.06-1.98-5.06-5.28ZM184.96 461.68c0-2.86 1.87-4.84 4.62-4.84s3.74 1.76 4.73 4.62c2.53 7.26 7.92 9.24 14.96 9.24 7.81 0 12.21-2.64 12.21-7.92s-4.29-6.93-9.57-8.03l-9.24-1.98c-7.7-1.65-16.06-6.71-16.06-16.17s8.8-16.72 21.78-16.72c13.86 0 22.88 8.36 22.88 17.16 0 2.97-2.09 4.62-4.62 4.62s-4.07-1.32-4.84-4.07c-1.43-5.61-5.61-9.13-13.42-9.13-6.71 0-11.44 2.64-11.44 7.48 0 4.51 3.85 6.82 9.24 7.92l9.24 1.98c9.02 1.98 16.39 7.26 16.39 16.5 0 10.67-9.9 16.94-22.55 16.94-17.6 0-24.31-11.99-24.31-17.6ZM242.7 463.66v-33.88h-5.72c-2.75 0-4.84-1.54-4.84-4.29s2.09-4.29 4.84-4.29h5.72v-8.91c0-3.3 1.98-5.28 5.06-5.28s5.06 1.98 5.06 5.28l-.11 8.91h7.92c2.75 0 4.84 1.54 4.84 4.29s-2.09 4.29-4.84 4.29h-7.81v33.66c0 4.84 2.42 7.04 5.94 7.04 1.98 0 2.86-.55 4.4-.55 2.2 0 4.07 1.76 4.07 4.07 0 3.52-4.62 5.28-9.24 5.28-10.78 0-15.29-7.37-15.29-15.62Z"/>
      <path d="M266.57 449.58c0-17.38 10.56-29.7 27.5-29.7s27.5 12.32 27.5 29.7-10.56 29.7-27.5 29.7-27.5-12.32-27.5-29.7Zm44.66 0c0-12.54-6.6-20.9-17.16-20.9s-17.16 8.36-17.16 20.9 6.6 20.9 17.16 20.9 17.16-8.36 17.16-20.9ZM329.27 473.12v-47.08c0-3.19 1.98-5.28 4.95-5.28s4.95 2.09 4.95 5.28v.99c4.62-5.28 9.57-7.15 14.63-7.15 4.51 0 9.35 1.54 9.35 5.61 0 2.42-1.87 4.29-4.29 4.29-1.43 0-2.75-.66-5.5-.66-8.25 0-13.97 6.05-13.97 16.72v27.28c0 3.3-1.98 5.28-5.06 5.28s-5.06-1.98-5.06-5.28ZM363.81 495.56c0-2.64 2.09-4.4 4.4-4.4s3.52 1.32 6.27 1.32c4.73 0 8.36-5.72 10.78-13.31l-18.7-49.83c-.55-1.43-.88-2.53-.88-3.63 0-2.86 2.42-4.95 5.17-4.95 3.41 0 4.62 2.42 5.5 4.95l14.19 41.47h.66l14.19-41.47c.88-2.53 2.2-4.95 5.39-4.95 2.64 0 4.84 1.87 4.84 4.95 0 1.1-.33 2.2-.88 3.63l-18.37 48.62c-5.5 14.52-11.33 23.32-22.55 23.32-5.83 0-10.01-2.2-10.01-5.72ZM431.68 449.58c0-17.38 10.56-29.7 27.5-29.7s27.5 12.32 27.5 29.7-10.56 29.7-27.5 29.7-27.5-12.32-27.5-29.7Zm44.66 0c0-12.54-6.6-20.9-17.16-20.9s-17.16 8.36-17.16 20.9 6.6 20.9 17.16 20.9 17.16-8.36 17.16-20.9ZM498.34 473.12v-43.56h-5.72c-2.75 0-4.84-1.54-4.84-4.18s2.09-4.18 4.84-4.18h5.72v-8.8c0-7.81 4.95-15.62 15.4-15.62 5.17 0 9.24 1.98 9.24 5.39 0 2.31-1.87 3.96-4.07 3.96-1.54 0-2.31-.55-4.29-.55-3.85 0-6.16 2.09-6.16 7.04v8.58h7.48c2.75 0 4.84 1.54 4.84 4.18s-2.09 4.18-4.84 4.18h-7.48v43.56c0 3.3-1.98 5.28-5.06 5.28s-5.06-1.98-5.06-5.28ZM538.38 456.4c0-3.74 2.53-6.05 5.72-6.05 2.97 0 4.95 1.98 5.72 5.06 2.53 9.46 8.47 14.19 19.25 14.19S587 465.2 587 457.17c0-6.93-5.28-11.11-13.2-13.09l-13.09-3.3c-9.02-2.31-20.46-8.36-20.46-21.67s11-22.33 28.49-22.33c23.21 0 29.26 16.17 29.26 22 0 3.52-2.2 5.94-5.61 5.94-2.64 0-4.73-1.43-5.83-5.39-2.75-9.79-9.02-12.87-18.04-12.87s-17.05 3.41-17.05 12.43c0 7.59 5.61 10.34 13.31 12.32l13.09 3.41c10.01 2.64 20.35 8.69 20.35 21.89 0 14.3-12.32 22.77-29.59 22.77-23.76 0-30.25-16.5-30.25-22.88ZM602.62 461.79c0-13.97 15.51-18.7 28.82-19.36l8.25-.44v-1.65c0-8.47-5.17-11.66-12.98-11.66-5.61 0-10.12 1.65-13.42 8.58-.88 1.98-2.42 3.3-4.73 3.3-2.86 0-4.62-2.09-4.62-4.84 0-4.18 6.16-15.84 22.77-15.84 13.31 0 22.88 7.26 22.88 19.91v21.01c0 4.4.22 8.8.55 11.88.33 3.52-1.54 5.72-4.73 5.72-2.86 0-4.62-1.87-4.84-5.5l-.11-2.09c-5.28 6.38-12.43 8.47-18.59 8.47-11.55 0-19.25-7.48-19.25-17.49Zm37.07-8.8v-2.42l-6.27.33c-8.14.44-20.68 2.31-20.68 11.11 0 4.95 3.96 8.47 10.34 8.47 8.36 0 16.61-6.05 16.61-17.49ZM659.82 473.12v-70.18c0-3.3 1.98-5.28 5.06-5.28s5.06 1.98 5.06 5.28v70.18c0 3.3-1.98 5.28-5.06 5.28s-5.06-1.98-5.06-5.28ZM678.08 461.79c0-13.97 15.51-18.7 28.82-19.36l8.25-.44v-1.65c0-8.47-5.17-11.66-12.98-11.66-5.61 0-10.12 1.65-13.42 8.58-.88 1.98-2.42 3.3-4.73 3.3-2.86 0-4.62-2.09-4.62-4.84 0-4.18 6.16-15.84 22.77-15.84 13.31 0 22.88 7.26 22.88 19.91v21.01c0 4.4.22 8.8.55 11.88.33 3.52-1.54 5.72-4.73 5.72-2.86 0-4.62-1.87-4.84-5.5l-.11-2.09c-5.28 6.38-12.43 8.47-18.59 8.47-11.55 0-19.25-7.48-19.25-17.49Zm37.07-8.8v-2.42l-6.27.33c-8.14.44-20.68 2.31-20.68 11.11 0 4.95 3.96 8.47 10.34 8.47 8.36 0 16.61-6.05 16.61-17.49ZM731.76 449.58c0-17.27 8.47-29.7 23.87-29.7 6.82 0 12.87 2.31 17.49 7.81v-24.75c0-3.3 1.98-5.28 5.06-5.28s5.06 1.98 5.06 5.28v70.18c0 3.19-1.98 5.28-4.95 5.28s-4.95-2.09-4.95-5.28v-1.98c-4.62 5.61-10.89 8.14-16.83 8.14-14.41 0-24.75-11.11-24.75-29.7Zm41.58 0c0-13.53-6.27-21.12-15.62-21.12s-15.62 7.59-15.62 21.12 6.27 21.12 15.62 21.12 15.62-7.59 15.62-21.12Z"/>
    </g>
    <path id="cucumber" class="illustration" fill="none" stroke="currentColor" stroke-width="1" stroke-miterlimit="10" d="m791.29 355.42 22.02 7.41-1.24 11.7-8.35-.9-17.52-1.85-6.27 11.15-5.81 6.99-12.97 2.84-16.23 1.66-23.75-2.52-28.38.37-22.91-2.44-44.22-9.76-34.72-7.06-31.29-7.54-40.97-11.95-41.94-7.83-43.77-12.25-44-7.2-31.95-9.31-26.94-8.77-19.21-2.04-44.48-10.63-45.8-14.15-31.03-10.05-62.84-28.63-43.45-28.26-16.87-16.15-11.86-15.62-7.77-14.34-5.92-15.83-1.09-13.63 1.12-10.51L50.42 118l18.96-11.5 20.01-5.48 24.48.07 57.76 12.88 68.74 20.81 48.69 18.69 33.57 17.92 40.7 14.45 21.84 9.08 12.53 1.33 53.71 19.21 14.59 5.77 31.12 9.22 42.63 12.12 13.01 4.76 18.02 5.29 25.93 10.36 26.46 5.34 29.18 11.54 23.12 4.99 29.27 10.71 15.6 4.19 21.4 13.25 29.93 12.47 13.31 9.86 3.38 7.96 2.93 12.13z"/>
    <path id="asparagus" class="illustration" fill="none" stroke="currentColor" stroke-width="1" stroke-miterlimit="10" d="m77.2 315.23-7.64 30.54-1.05 24.41 5.23 7.76 33.88.87 70.07-4.88 44.26-.47 12.08 3.7 22.29-7.12 48.01-4.12 95.51-3.97 104.9-13.63 20.45-.3 55.08-10.57 66.01-11.74 54.33-12.33 58.3-22.35 13.26 4.61 14.39-2.93 21.39-5.94 14.66-.85 28.75-14.29 15.68-12.06 9.14-8.05 3.48-5.73-17.55-5.1-34.01-1.92-18.41 4.51-20.53-3.67-29.01 12.21-2.17 7.67-27.25 1.43-18.91 8.79-32.81 7.43-22.33-1.32-13.85 7.07-117.26 15.24-85.5 7.94-26.75-2.85-25.54 6.48-125.11 3.59-58.02.15-48.27 2.05-35.06-1.77-44.12 1.51z"/>
    <path id="avocado" class="illustration" fill="none" stroke="currentColor" stroke-width="1" stroke-miterlimit="10" d="m688.31 230.14 112.98 22.03-2.63 26.86-6.52 27.27-26.22 38.92-54.93 33.72-61.78 14.89-64.47-5.16-76.02-27.61-47.83-27.25-65.12-43.02-48.74-39.66-38.25-41.22-13.74-21.95-1.47-15.88 1.74-9.57L504.4 200.6l.14 14.45 12.31 20.42 29.92 27.94 29.31 19.45 31.61 1.9 29.91-3.5 26.56-11.39 12.12-11.24 9.57-16.84 2.46-11.65z"/>
    <path id="carrot" class="illustration" fill="none" stroke="currentColor" stroke-width="1" stroke-miterlimit="10" d="m173.95 366.91.79-19.88.52-13.06 1.17-29.45 4.14-13.45 10.61-8.31 18.13-3.39 10.38-2.42 32.31 1.29 13-2.83 29.58-.36 25.24 5.38 36.89 3.26 19.42 2.84 35.45.64 20.75 1.85 26.55 4.66 25.9 1.8 19.27 6.68 23.91 6.35 13.06 1.29 27.44 1.61 9.73 1.16 12.61 5.9 12.58.5 9.99.91 16.83 9.93 25.06 9.74 17.95 7.66 19.14 3.59 9.86 4.24 11.57 6.38 14.66-.19 13.09.52 15.4.62 7.53-2.02 8.49-.17 10.07-.89 4.13 2.61 1.69 2.89-2.35 4.15-9.51-.12-14.88 5.58-11.01 5.47-15.19.43-17.21 6.25-53.08-3.4-14.35-1.09-39.49-9.02-43.22.59-21.4 1.72-12.46 3.1-82.38-3.8-10.14-3.49-20.76-1.59-15.34 4.27-25.66 5.4-20.49-2.1-49.74-3.26-19.72 4.61-15.56 3.24-19.57 7.44-26.24.5-29.94-3.51-13.77-9.29-11.43-9.96z"/>
    <path id="spinach" class="illustration" fill="none" stroke="currentColor" stroke-width="1" stroke-miterlimit="10" d="m477.65 412.9 5.88-.66 3.17-4.23 1.83-6.35-8.3-7.32-22.35-13.95-26.95-14.87-28.31-12.06-22.49-10.11-11.01-8.04-3.26-5.52.26-9.09 3.2-11.07-1.14-16.25-2.28-14.68-5.62-7.45-7.87-4.5-4.53-3.53-11.25-3.25-8.61-7.34-8.99-6.35-15.54-6.29-9.16-2.65-12.96-2.49-6.06-3-8.78.52-11.71.64-8.94-.78-8.5.6-13.73 2.84-7.19 2.78-6.53 1.45-6.14 1.55-8.33.93-7.55 3.1-5.75 5-6.6 6.01-5.81 6.17-5.21 8.42-3.24 11.24-1.29 16.47 4.12 14.1 5.35 12.24 5.85 10.02 5.02 7.14 7.39 10.47 7.47 9.24 8.12 10.82 9.05 6.64 14.29 7.73 13.81 3.99 12.37 5.38 11.86 2.18 18.47 1.44 9.32.89 9.22-.67 11.74-2.16 8.9-1.04 8.98.65 5.66 1.08 5.87-1.08 6.75-3.19 6.16-7.38 4.14-7.14 2.85-8.9.81-7.12 3.94-6.92 3.78-1.54 7.67 1.8 10.96 4.83 22.88 10.22 17.71 7.89 17.73 9.29 13.1 8.5 12.96 9.44 3.34 5.27z"/>
    <path id="arugula" class="illustration" fill="none" stroke="currentColor" stroke-width="1" stroke-miterlimit="10" d="m807.11 377.02 2.58 9.42-40.81 3.56-46.45-.81-40.75-9.3-49.31-19.81-59.54-21.3-15.33-10.47-32.6-6.83-21.32 1.98-11.34 11.14.09 9.39-7.66 10.4-5.32 10.87-2.28 7.83-26.35 19.96-5.67 15.67 1.5 5.46-9.91 3.22-7.1-4.7.56-12.05-.67-9.51-3.27-12.94 8.27-23.3 9.09-13.29-.11-7.45 7.68-15.39-.1-15.47-.53-8.99-5.37-5.45-19.09-8.04-21.41-4.37-19.98-10.29-18.43-4.63-7.21 1.98-6.44 9.8-8.84 7.13-3.13 4.73-9.59 5.4-22.34 22.46-12.13-.82-21.14 12.72-18.63 3.73-11.67-6.2 2.11-12.49 5.18-8.34 5.55-15.08 10.57-7.89 14.45-21.95 14.16-18.01 1.7-7.94-8.11-17.42-14.88-7.82-16.16-4.42-14.52 7.58-17.81 16.79-11.39 8.94-17.83 18.74-4.93 5.22-25.93 7.4-14.38-6.02-17.71-7.04-14.68-2.06-11.56-8.18-19.83-19.46-6.62-12.02-5.02-18.28-11.28-14.89-20.89-29.7-15.56-12.34-6.09-22.17-1.64-21.1-5.76-13.92L.52 52.73l1.72-9.88 7.23-3.93 4.14-14.14 12.58-7.61 16.98.33 20.9-.48 24.06-4.12 13.54-8.14 13.35.21L151.43.51l9.21 3.29 24.46 13.49 14.55 7.63L225 48.69l11.44 10.42 6.34 10.99 4.94 14.97 3.32 26.22-3.92 24.05 1.19 12.4 4.63 9.8 22.44 10.17 7.33.48 14.39-5.05 6.01-17.43 2.17-21.35 13.36-18.89 3.67-28.97 2.86-10.75 10.57-7.88 14.09-1.1 12.4 6.6 13.26 8.22 6.07 16.05.46 11.78 1.28 7.67 1.23 25.68-1.86 23.48-5.44 19.49.16 15.73-4.24 12.79 3.33 12.1 7.43 10.96 19.64 12.05 24.07 16.09 6.84 1.72 11.09-4.98 4.06-17.44 6.2-17.9 1.62-11.1-1.67-14.33 4.71-16.95 1.36-11.17 3.82-14.33 6.21-8.63 4.79-5.74 13.04-1.92 8.94.32 6.58 1.79 7.38 13.75 1.91 24.11 1.03 16.88-.02 27.13-5.96 33.74 5.31 28.44 11.22 17.68 10.78 10.05 19.15 10.24 22.25 10.5 24.2 10.52 7.07.55 1.73-3.8-3.95-25.48-4.87-11.68-12.66-15.9 9.7 5.09 12.58 9.56 8.23 19.88 5.53 21.18 8.03 11.08 10.64 6.49 21.13 9.42 5.69-11.52 6.13-3.9-1.81 11.57-1.06 7.21 18.9 5.33 19.6 4.86 12.53 1.27-.04-7.19-3.32-15.14 5.58 6.22 3.15 7.44 2.14 8.82 9.63 1.79 34.95-.74 29.42-3.23z"/>
  </g>
</svg>