<svg xmlns="http://www.w3.org/2000/svg" viewBox="0 0 219.15 307.72" id="spinach">
  <path fill="none" stroke="currentColor" stroke-miterlimit="10" d="m218.3 13.2.33-5.91L215 3.46 209.05.59l-8.61 6.95-17.5 19.7-19.18 24.07-16.64 25.89-13.73 20.48-9.77 9.5-6 2.29-8.91-1.78-10.37-5.01-16.21-1.6-14.86-.21-8.3 4.29-5.74 7.01-4.25 3.87-5.08 10.55-8.69 7.25-7.76 7.8-8.81 14.27-4.15 8.58-4.63 12.36-3.97 5.47-.96 8.74-1.33 11.65-2.26 8.69-.84 8.48.5 14.01 1.53 7.56.34 6.68.5 6.31-.48 8.36 1.78 7.97 3.97 6.51 4.82 7.51 5.11 6.76L26 298.1l10.53 5.08 16.03 4.03 14.59-1.69 12.96-3.23 10.86-4.09 7.89-3.75 11.55-5.53 10.36-5.81 12.03-6.2 8.06-7.8 10.02-12.79 6.25-12.95 7.38-11.29 4.13-11.33 4.52-17.97 2.44-9.04.89-9.2-.17-11.93.47-8.96 2.15-8.74 2.01-5.39-.08-5.97-2.01-7.19-6.25-7.31-6.34-5.28-8.29-4.3-6.89-1.99-6.16-5.05-.89-3.98 3.06-7.26 6.6-10 13.91-20.84 10.75-16.14 12.13-15.92 10.58-11.48 11.48-11.2 5.75-2.41z"/>
</svg>