<?xml version="1.0" encoding="UTF-8"?><svg id="Layer_2" xmlns="http://www.w3.org/2000/svg" viewBox="0 0 219.15 307.72"><defs><style>.cls-1{stroke:#29272f;}.cls-1,.cls-2{fill:none;stroke-miterlimit:10;}.cls-2{stroke:#000;}</style></defs><g id="ILLUSTRATIONS"><polygon id="spinach" class="cls-1" points="218.3 13.2 218.63 7.29 215 3.46 209.05 .59 200.44 7.54 182.94 27.24 163.76 51.31 147.12 77.2 133.39 97.68 123.62 107.18 117.62 109.47 108.71 107.69 98.34 102.68 82.13 101.08 67.27 100.87 58.97 105.16 53.23 112.17 48.98 116.04 43.9 126.59 35.21 133.84 27.45 141.64 18.64 155.91 14.49 164.49 9.86 176.85 5.89 182.32 4.93 191.06 3.6 202.71 1.34 211.4 .5 219.88 1 233.89 2.53 241.45 2.87 248.13 3.37 254.44 2.89 262.8 4.67 270.77 8.64 277.28 13.46 284.79 18.57 291.55 26 298.1 36.53 303.18 52.56 307.21 67.15 305.52 80.11 302.29 90.97 298.2 98.86 294.45 110.41 288.92 120.77 283.11 132.8 276.91 140.86 269.11 150.88 256.32 157.13 243.37 164.51 232.08 168.64 220.75 173.16 202.78 175.6 193.74 176.49 184.54 176.32 172.61 176.79 163.65 178.94 154.91 180.95 149.52 180.87 143.55 178.86 136.36 172.61 129.05 166.27 123.77 157.98 119.47 151.09 117.48 144.93 112.43 144.04 108.45 147.1 101.19 153.7 91.19 167.61 70.35 178.36 54.21 190.49 38.29 201.07 26.81 212.55 15.61 218.3 13.2"/><polygon id="onion" class="cls-1" points="152.58 39.63 162.68 29.72 170.38 26.36 176.75 25.71 179.83 28.85 178.09 34.21 175.14 46.91 172.84 67.39 175.49 87.22 178.09 111.28 184.34 124.78 198.21 154.6 203.65 178.7 203.17 200.89 196.88 223.18 182.53 245.68 164.72 260.37 148.36 270.83 125.08 277.57 103.72 281.03 86.02 282.99 66.22 282.81 61.99 281.36 52.86 274.91 29.74 251.36 25.55 245.67 24.88 240.71 16.48 232.15 12.37 216.55 7.59 198.83 4.98 174.77 2.98 161.31 1.68 148.57 4.6 138.7 12.48 126.75 26.79 108.49 44.61 93.81 66.62 83.4 90.7 79.38 106.29 75.27 121.21 67.63 139.01 54.36 152.58 39.63"/><path id="radish" class="cls-2" d="M193.67,165.01l-11.87-20.88-14.74-9.74-14.98-8.81,13.81-10.3,9.06-11.53,9.3-12.46,10.01-15.24,1.87-2.64c-3.37-1.7-6.71-3.47-10.02-5.26l-1.59,2.42-9.77,10.36,7.39-14.93c-.67-.36-1.35-.73-2.02-1.09-2.48-1.34-4.95-2.67-7.49-3.89-.19-.09-.38-.17-.57-.26l-12.07,26.26,3.36-20.92-.14-7.93c-.62-.16-1.19-.29-1.65-.36-2.48-.34-4.96-.64-7.43-1.02-1.92-.3-3.82-.67-5.72-1.06l-.52,7.37-3.12,23.95-4.53,9.72-1.63-33.09-1.38-10.51c-3.75-.9-7.51-1.78-11.31-2.49l.07,14.71-3.33-2.84-1.76-6.48c-.35.03-5.56.83-6.46.94l2.5,15.95,1.64,25.17-3.1,8.11-31.88-6.23-29.76,9.17-25.73,25.06-9.54,21.31-2.66,33.97,9.48,30.16,20.92,21.23,19.98,13.06,3.55,5.94-.94,3.65,1.65,9.34.72,4.24,3.06.79,1.22-4.73.24-4.89,1.43-5.57,7.38-1.07,19.27,3.97,25.46-.37,25.47-8.29,23.58-20.66,13.59-21.25,5.02-23.46-3.3-26.59Z"/></g></svg>