<svg id="Layer_2" xmlns="http://www.w3.org/2000/svg" viewBox="0 0 602.16 241.49">
  <defs>
    <style>
      .cls-1,.cls-2{stroke:#29272f;fill:none;stroke-miterlimit:10}.cls-2{stroke:#000}
    </style>
  </defs>
  <g id="ILLUSTRATIONS">
    <path id="carrot" class="cls-1" d="m599.25 143.05-3.86 19.22-2.54 12.63-5.73 28.47-6.11 12.44-11.63 6.44-18.17.48-10.48.73-31.24-6.28-13.08.73-28.84-4.25-23.72-9.17-35.39-8.92-18.47-5.78-34.39-6.14-19.91-5.04-25.11-8.66-24.91-5.79-17.72-9.5-22.28-9.9-12.51-3.29-26.45-5.84-9.28-2.64-11.36-7.71-12.16-2.44-9.58-2.45-14.83-12.28-22.88-13.37-16.27-10.25-18.06-6.47-8.93-5.67-10.27-8.01-14.3-2.1-12.66-2.54-14.89-3-7.64.79-8.29-1.15-9.93-.71-3.62-3.18-1.19-3.08L3.5 45.7l9.24 1.6 15.34-3.11 11.57-3.61 14.84 1.95 17.73-3.41 51.12 11.58 13.8 3.29 37.02 14.93 42.15 6.15 21.09 1.66 12.61-1.08 79.57 16.52 9.33 4.98 19.95 4.78 15.59-1.77 25.82-1.26 19.6 5.23 47.9 10.93 19.91-1.42 15.64-.73 20.21-4.2 25.61 3.6 28.59 8.08 11.95 11.18 9.57 11.48z"/>
    <path id="avocado" class="cls-1" d="m442.84 77.23 112.98 22.04-2.62 26.85-6.53 27.27-26.22 38.92-54.92 33.72-61.78 14.89-64.48-5.16-76.02-27.61-47.82-27.24-65.13-43.03-48.73-39.66L63.32 57 49.58 35.05l-1.47-15.88 1.73-9.56 209.09 38.08.15 14.46 12.31 20.41 29.91 27.95 29.32 19.44 31.6 1.9 29.91-3.5 26.57-11.39 12.12-11.24 9.57-16.84 2.45-11.65z"/>
    <path id="cucumber" class="cls-1" d="m569.06 165.03 16.35 4.37-.36 8.56-6.12-.26-12.82-.54-4.04 8.4-3.9 5.34-9.3 2.67-11.71 1.96-17.39-.74-20.61 1.58-16.77-.71-32.59-5.05-25.56-3.52-23.1-4.04-30.33-6.79-30.85-3.75-32.38-6.88-32.32-3.2-23.65-5.29-19.99-5.13-14.06-.59-32.83-5.67-33.94-8.17-23.02-5.87-47-17.91-32.9-18.53-13.01-10.96-9.34-10.8-6.31-10.06-5.03-11.24-1.42-9.85.32-7.7 6.46-7.94 13.25-9.24 14.29-4.9 17.8-1.09 42.58 6.7 50.93 11.94 36.26 11.33 25.23 11.48 30.25 8.62 16.3 5.59 9.17.38 39.92 11.49 10.88 3.52 23.04 5.26 31.55 6.84 9.68 2.86 13.34 3.01 19.33 6.33 19.48 2.66 21.75 7.04 17.03 2.55 21.77 6.43 11.54 2.33 16.17 8.64 22.33 7.68 10.13 6.55 2.82 5.63 2.7 8.68z"/>
    <path id="arugula" class="cls-2" d="m592.15 164.1 3 5.96-26.82 7.87-31.17 5.7-28.5-.74-35.64-6.62-42.69-6.23-11.65-4.94-22.72-.18-14 4.19-6.08 8.98 1.32 6.26-3.72 7.99-2.1 7.99-.47 5.54-14.94 16.89-1.68 11.24 1.74 3.45-6.2 3.49-5.38-2.19-1.24-8.14-1.73-6.26-3.93-8.21 2.4-16.7 4.29-10.11-1.07-4.97 3.06-11.32-2.15-10.34-1.56-5.94-4.32-2.92-13.85-2.81-14.9-.04-14.75-4.19-12.95-.62-4.55 2.29-3 7.42-4.95 5.96-1.45 3.59-5.69 4.9-11.92 18.02-8.22 1.09-12.43 11.35-11.95 5-8.64-2.59-.27-8.63 2.34-6.27 1.68-10.84 6.01-6.69 6.71-16.63 7.05-13.94.07-5.54-7.77-10.56-11-3.23-11.4-.78-8.69 7.02-9.66 13.63-6.41 7.51-9.4 14.92-2.6 4.16-16.34 8.43-10.43-2.08-12.79-2.33-10.09.6-8.83-3.92-15.88-10.35-6.05-7.14L79.39 139l-9.55-8.44-17.96-17.05-12.07-6.16-7.05-14.01-3.94-13.89-5.72-8.53L9.13 55.73l-.18-6.84 4.31-3.59.87-10.02 7.39-6.78 11.39-2.07 13.92-3.13 15.53-5.98 7.96-7.27 8.96-1.66L103.03.51l6.6.96L127.8 7.2l10.76 3.15 20.14 12.48 9.06 5.43 5.71 6.5 5.32 9.35 5.75 17.08.61 16.61 2.47 8.14 4.41 5.93 16.38 3.78 4.96-.66 8.95-5.32 1.67-12.46-1.42-14.57 6.39-14.43-1.44-19.87.47-7.57 6.01-6.69 9.27-2.63 9.18 2.74 9.98 3.72 6.21 9.92 1.9 7.81 1.88 4.96 4.28 17 1.92 15.96-1.02 13.76 2.23 10.5-1.12 9.12 3.85 7.65 6.45 6.33 14.75 5.41 18.26 7.53 4.81.23 6.74-4.82.37-12.22 1.74-12.8-.41-7.64-3.05-9.36.88-11.97-.59-7.65.62-10.1 2.99-6.6 2.44-4.49 8.45-3.03 6.03-1 4.64.32 6.78 8.2 4.52 15.87 2.96 11.14 3.64 18.15.55 23.37 7.38 18.3 9.88 10.31 8.56 5.27 14.18 4.28 16.3 4.03 17.6 3.78 4.8-.59.64-2.77-6.07-16.51-4.82-7.15-10.61-8.93 7.17 2.1 9.7 4.69 8.18 12.2 6.55 13.41 6.85 6.33 7.99 2.91 15.4 3.46 2.26-8.47 3.57-3.43.35 7.98.26 4.96 13.35 1.03 13.77.61 8.54-.84-.99-4.8-4.26-9.68 4.57 3.41 3.11 4.55 2.62 5.61 6.68-.1 23.27-5.19 19.24-6.12z"/>
    <path id="asparagus" class="cls-2" d="m31.29 27.25-12.36 19.3-6.39 16.61 1.8 6.57 23.19 8.47 49.5 12.89 30.66 9.95 7.48 5.36 17.04.27 34.1 8.29 66.85 19.43 75.57 14.95 14.19 4.54 40.48 5.49 48.29 7.21 40.36 4.1 45.43-1.89 8.09 6.26 10.61 1.32 16.15.86 10.32 2.82 23.15-3.19 13.63-4.69 8.18-3.43 3.73-3.15-10.93-7.6-23.04-9.21-13.75-1.17-13.32-7.29-22.86 1.69-3.28 4.79-19.14-5.34-15.09 1.68-24.37-2.49-15.11-6.09-11.21 1.67-84.48-16.71-60.86-14.36-17.8-8.18-19.14-1.45-87.19-26.57-40.09-13.36-33.8-9.79-23.78-9.36-30.81-9.2z"/>
  </g>
</svg>