<svg xmlns="http://www.w3.org/2000/svg" viewBox="0 0 652.1 86.13" fill="currentColor">
  <path d="M45.04 74.44c17.32-1.07 30.5-15.99 29.42-33.31-.98-15.82-13.6-28.44-29.42-29.42v7.66c13.09 1.09 22.82 12.59 21.73 25.69-.97 11.58-10.15 20.76-21.73 21.73v7.67ZM41.07 23.37C30.18 24.48 22.25 34.2 23.35 45.09c.95 9.36 8.35 16.77 17.72 17.72v-7.7c-6.64-1.12-11.11-7.42-9.98-14.05.87-5.11 4.87-9.12 9.98-9.98v-7.7Z"/>
  <path d="M43.05 78.48c-19.56 0-35.41-15.87-35.41-35.43 0-19.56 15.87-35.41 35.43-35.41 18.79 0 34.3 14.68 35.35 33.43h7.66C84.99 17.32 64.84-1.05 41.08.05 17.32 1.14-1.05 21.29.05 45.05c1.06 22.98 20 41.07 43.01 41.08 23.02.04 41.98-18.07 43.01-41.06H78.4C77.36 63.82 61.84 78.5 43.06 78.48Z"/>
  <path d="M11.6 43.07c0 16.59 12.9 30.32 29.46 31.37v-7.67c-13.09-1.09-22.82-12.59-21.73-25.69.97-11.58 10.15-20.76 21.73-21.73v-7.66C24.5 12.73 11.61 26.46 11.6 43.05ZM157.79 32.17c-4.55-3.87-10.33-5.99-16.31-5.96-9.31.26-16.65 8.01-16.4 17.32.25 8.95 7.44 16.15 16.4 16.4 5.97.03 11.76-2.09 16.31-5.96l.34.34v9.16c-4.51 3.27-10.06 4.93-16.65 4.93-14.22 0-25.67-11.42-25.67-25.32s11.42-25.32 25.67-25.32c6.59 0 12.14 1.66 16.65 4.93v9.16l-.34.34ZM197.55 64.3c-3.12 2.08-7.98 4.09-12.9 4.09-10.62 0-18.46-7.84-18.46-17.63 0-9.42 6.59-17.03 16.79-17.03 9.23 0 14.99 7.91 14.99 16.09.06.99-.06 1.97-.35 2.92l-.55.34h-22.69c.98 5.08 4.93 8.05 10.27 8.05 4.65-.09 9.12-1.87 12.56-5l.34.35v7.81Zm-7.7-17.35c-.47-3.43-3.41-5.98-6.87-5.96-4.57 0-7.28 2.7-8.32 5.96h15.2ZM214.14 34.74l.35.35v1.03c2.64-1.51 5.62-2.34 8.67-2.39 10.41 0 15.62 5.89 15.62 15.26v18.04l-.35.35h-7.35l-.35-.35V49.9c0-5.55-2.77-8.39-7.98-8.39-3.17 0-6.38 1.32-8.25 3.47v22.06l-.35.35h-7.34l-.35-.35V35.09l.35-.35h7.34ZM257.44 26.42l.35.41v7.91h12.47l.35.35v7.42l-.35.34h-12.47v10.41c0 5.55 2.43 7.35 5.2 7.35 2.62-.02 5.16-.87 7.27-2.42l.35.34v7.77c-2.35 1.24-4.95 1.95-7.61 2.08-8.81 0-13.32-5.41-13.32-14.43v-11.1h-5.55l-.35-.34v-7.42l.35-.35h5.55v-7.99l.34-.35h7.43ZM307.26 64.3c-3.12 2.08-7.98 4.09-12.91 4.09-10.62 0-18.45-7.84-18.45-17.63 0-9.42 6.59-17.03 16.79-17.03 9.23 0 15 7.87 15 16.06.06.99-.06 1.97-.34 2.92l-.56.34h-22.7c.97 5.08 4.92 8.05 10.27 8.05 4.65-.09 9.12-1.86 12.56-5l.35.35v7.84Zm-7.7-17.35c-.47-3.43-3.41-5.97-6.87-5.96-4.58 0-7.28 2.7-8.32 5.96h15.19ZM323.85 34.74l.34.35v1.03c2.64-1.52 5.63-2.34 8.67-2.39 2.16-.04 4.3.44 6.24 1.39l.35 8.12-.35.34c-2.08-1.73-4.92-2.08-6.66-2.08-3.17 0-6.38 1.32-8.25 3.47v22.06l-.34.35h-7.36l-.34-.35V35.09l.34-.35h7.35ZM368.12 34.74v-1.53c0-9.3 5.13-15.47 14.15-15.47 2.23-.06 4.45.42 6.45 1.4v8.12l-.34.35c-1.59-1.39-3.65-2.13-5.76-2.08-4.23 0-6.38 2.77-6.38 8.05v1.18h12.14l.34.35v7.42l-.34.34h-12.16v24.14l-.34.35h-7.41l-.34-.35V42.86h-5.23l-.35-.34v-7.51l.35-.27h5.23ZM427.31 51.04c.02 9.58-7.73 17.36-17.31 17.39s-17.36-7.73-17.39-17.31c-.02-9.58 7.73-17.36 17.31-17.39h.04c9.49-.09 17.25 7.52 17.35 17v.31Zm-26.43 0c0 5.55 3.74 9.57 9.09 9.57s9.02-4.04 9.02-9.57-3.75-9.57-9.02-9.57-9.09 4.03-9.09 9.57ZM443.9 34.74l.35.35v1.03c2.64-1.52 5.63-2.34 8.67-2.39 2.16-.04 4.3.44 6.24 1.39l.34 8.12-.34.34c-2.08-1.73-4.93-2.08-6.66-2.08-3.17 0-6.38 1.32-8.25 3.47v22.06l-.35.35h-7.36l-.34-.35V35.09l.34-.35h7.35ZM526.41 32.17c-4.55-3.87-10.33-5.99-16.31-5.96-9.31.26-16.65 8.01-16.4 17.32.25 8.95 7.44 16.15 16.4 16.4 5.97.03 11.76-2.09 16.31-5.96l.34.34v9.16c-4.51 3.27-10.06 4.93-16.65 4.93-14.22 0-25.67-11.42-25.67-25.32s11.42-25.32 25.67-25.32c6.59 0 12.14 1.66 16.65 4.93v9.16l-.34.34ZM544.31 34.74l.35.35v1.03c2.64-1.51 5.62-2.34 8.67-2.39 2.16-.04 4.31.44 6.25 1.39l.34 8.12-.34.34c-2.08-1.73-4.92-2.08-6.66-2.08-3.17 0-6.38 1.32-8.25 3.47v22.06l-.35.35h-7.36l-.34-.35V35.09l.34-.35h7.35ZM566.58 35.78c2.69-1.37 5.67-2.08 8.69-2.05 7.61 0 14.02 4.51 14.02 13.88v19.42l-.35.35h-7.42l-.35-.35v-1.04c-2.36 1.57-5.14 2.42-7.98 2.43-5.62 0-11.42-2.77-11.42-9.64 0-9.16 9.52-12 19.42-12.56 0-2.91-2.42-5.2-6.24-5.2s-7.21 1.27-11.38 4.02l-.35-.35 3.36-8.91Zm14.59 16.58c-7.28.35-11.1 2.5-11.1 5.55 0 2.15 1.73 3.17 4.09 3.17 2.47-.04 4.89-.76 6.98-2.08l.03-6.64ZM601.15 34.74v-1.53c0-9.3 5.13-15.47 14.15-15.47 2.24-.07 4.46.41 6.48 1.4v8.12l-.35.35c-1.59-1.39-3.64-2.13-5.76-2.08-4.23 0-6.38 2.77-6.38 8.05v1.18h12.14l.35.35v7.42l-.35.34h-12.14v24.14l-.35.35h-7.47l-.34-.35V42.86h-5.21l-.34-.34v-7.51l.34-.27h5.23ZM638.91 26.42l.35.41v7.91h12.49l.35.35v7.42l-.35.34h-12.49v10.41c0 5.55 2.43 7.35 5.2 7.35 2.62-.01 5.17-.86 7.28-2.42l.35.34v7.77c-2.35 1.24-4.95 1.95-7.61 2.08-8.81 0-13.32-5.41-13.32-14.43v-11.1h-5.57l-.35-.34v-7.42l.35-.35h5.55v-7.99l.34-.35h7.43Z"/>
</svg>