<svg xmlns="http://www.w3.org/2000/svg" viewBox="0 0 725.7 109.53" fill="currentColor">
  <path d="M570.86.04c2.14.46 4.29.91 6.43 1.38 21.39 4.75 35.47 17.77 40.92 38.78 5.29 20.41 1.21 39.19-14.23 54.49-7.5 7.43-16.49 12.3-27.09 13.84-.14.02-.28.05-.42.09-1.73.51-3.5.9-5.31.9h-7.07c-1.83 0-3.62-.39-5.39-.89-.14-.04-.28-.07-.42-.09-21.17-2.76-42.17-23.22-43.13-49.01-.34-9.04.1-17.95 3.85-26.33 7.57-16.87 20.11-27.83 38.41-31.79 2.36-.51 4.74-.95 7.1-1.43l6.35.04Zm-46.49 54.98c.86 4.75 1.17 9.68 2.67 14.22 5.17 15.61 15.73 25.97 31.99 29.19 16.7 3.3 30.92-1.86 41.69-15.28 8.84-11 11.08-23.7 8.59-37.34-5.18-28.39-35.52-43.84-61.23-30.38-15.6 8.16-22.93 21.93-23.71 39.6ZM689.88.02c1.42 0 2.82.3 4.16.77.32.11.64.2.97.25 15.16 2.25 27.8 15.04 29.75 30.38.57 4.5.86 9.07.88 13.61.1 18.69.04 37.39.04 56.08v5.32h-9.71v-4.91c0-19.91.05-39.82-.05-59.73-.02-3.47-.31-7.01-1.06-10.39-2.89-13.04-14.37-20.63-24.91-20.88-12.7-.29-23.54 8.5-26.2 20.32-.66 2.93-.98 6-.99 9.01-.08 20.52-.04 41.04-.04 61.55v5.13h-9.33c-.13-1.17-.38-2.32-.38-3.47-.02-21.58-.11-43.16.03-64.74.09-13.89 5.88-25.28 18.45-33.29 3.52-2.24 7.57-3.43 11.71-3.96.55-.07 1.1-.22 1.63-.41 1.22-.41 2.49-.65 3.77-.65h1.28ZM315.39 106.63V3.2c1.21-.09 2.09-.21 2.97-.21 8.05-.02 16.12-.26 24.16.1 3.7.17 7.55 1.06 10.98 2.48 14.4 5.98 15.57 23.68 8.56 33.05-.89 1.19-1.77 2.38-2.84 3.81 5.37 2.28 9.95 5.12 13.69 9.24 8.48 9.36 11.01 20.31 7.38 32.15-3.64 11.88-12.04 19.4-24.22 22.43-.88.22-1.8.35-2.7.35-12.6.02-25.2.02-37.96.02Zm9.75-9.92c.66.11 1.25.3 1.84.3 8.21 0 16.42.02 24.63-.06 1.49-.01 3.03-.26 4.47-.68 10.55-3.07 17.05-13.87 15.58-25.26-1.49-11.6-12.19-23.45-28.32-19.99-8.18 1.75-17.6 9.77-18.25 19.34-.55 8.17-.39 16.39-.5 24.59 0 .56.34 1.13.54 1.76Zm-.05-83.88c-.25 1.41-.55 2.29-.55 3.17-.03 10.34-.03 20.68.02 31.01 0 .77.51 1.53.67 1.98 6.65-3.31 13.05-6.42 19.37-9.69 2.27-1.18 4.47-2.6 6.47-4.2 4.5-3.6 5.94-8.37 4.37-13.86-1.53-5.38-5.82-7.89-10.9-8.29-6.32-.5-12.71-.12-19.45-.12ZM415.88 106.49V3.21c1.27-.09 2.29-.22 3.32-.22 8.2-.02 16.41-.11 24.61.02 6.53.1 12.52 1.93 17.71 6.14 9.86 7.98 10.55 24.08 2.79 33.77-1.04 1.29-2.13 2.54-3.53 4.21 1.31.58 2.29 1.15 3.35 1.48 11.9 3.66 18.24 12.35 20.48 23.95 2.13 11.07.66 22.37 1.01 33.9h-9.47c-.11-1.49-.29-2.81-.29-4.13-.03-7.29.12-14.59-.05-21.88-.23-10.19-4.28-18.28-13.8-22.82-12.18-5.8-27.86-.59-34.32 11.24-1.63 2.99-2.38 6.18-2.36 9.61.06 7.75.02 15.5.02 23.25v4.76h-9.47Zm9.73-51.07c3.93-2.38 7.22-4.52 10.65-6.39 3.45-1.88 7.05-3.5 10.58-5.24 3.71-1.83 6.99-4.22 9.71-7.37 5.2-6 4.97-18.22-5.63-22.14-2.51-.93-5.28-1.41-7.95-1.55-4.69-.25-9.4-.11-14.1-.07-1.01 0-2.02.27-3.26.45v42.31ZM54.49 56.02V3.22h8.91c.92 3.27 1.32 92.93.42 103.18h-9.06c-.11-1.1-.32-2.27-.32-3.43-.03-7.15.09-14.29-.07-21.44-.07-3.01-.37-6.09-1.09-9.01-2.26-9.18-9.15-15.06-18.8-15.99-7.29-.71-14.58-.09-21.8 1.04-2.94.46-3.23.91-3.24 4.39-.03 13.07-.01 26.15-.01 39.22v5.27H0V3.24h9.22c.07 1.49.21 3.08.21 4.68.02 11.55 0 23.11.02 34.66 0 1.62.15 3.24.25 5.3 2.59-.28 4.67-.5 6.74-.73 7.76-.86 15.49-.64 23.11 1 5.53 1.19 10.74 3.17 14.93 7.86ZM112.43 96.92h40.94v9.17c-3.3.85-44.12 1.1-49.97.32-.81-3.24-1.08-96.6-.26-103.13h50.24v9.27h-39.92c-1.23 3.53-1.46 32.09-.33 37.63 4.51.01 9.18.04 13.84.04h14.33v9.72h-28.64c-.46 12.38-.12 24.32-.24 36.98ZM245.14 3.34v5.71c0 25.09 0 50.18.01 75.27 0 1.82.06 3.66.33 5.45.74 4.91 3.32 7.2 8.28 7.25 8.52.07 17.03.02 25.55.03h4.5c.09 1.66.2 3.12.24 4.57.04 1.5 0 2.99 0 4.83-1.64.13-2.94.33-4.25.33-9.58.03-19.17-.31-28.74.11-8.43.37-15.52-5.4-15.42-15.18.2-19.31.05-38.62.05-57.94V3.34h9.43ZM197.06 106.55h-9.18V3.27h9.18v103.27Z"/>
</svg>