<svg xmlns="http://www.w3.org/2000/svg" viewBox="0 0 621.3 101.84" fill="currentColor">
  <path d="M19.85 18.02c-1.25-.44-2.35-1.08-3.27-1.91-.93-.83-1.65-1.82-2.16-2.97-.51-1.15-.76-2.42-.76-3.81s.26-2.7.76-3.83c.51-1.13 1.23-2.11 2.16-2.94.93-.83 2.02-1.47 3.27-1.9C21.1.22 22.49 0 24.01 0s2.87.22 4.14.66c1.27.44 2.35 1.07 3.25 1.9.9.83 1.61 1.81 2.13 2.94.52 1.13.79 2.41.79 3.83s-.26 2.66-.79 3.81-1.24 2.14-2.13 2.97c-.9.83-1.98 1.47-3.25 1.91-1.27.44-2.65.66-4.14.66s-2.91-.22-4.16-.66M0 88.08c1.08.17 2.13.3 3.15.38 1.02.08 1.98.13 2.89.13 1.32 0 2.55-.13 3.7-.38 1.15-.26 2.13-.74 2.94-1.45s1.45-1.68 1.9-2.89c.46-1.22.69-2.79.69-4.72V28.43h17.36v51.12c0 4.37-.57 7.97-1.73 10.81-1.15 2.84-2.78 5.12-4.9 6.83-2.12 1.71-4.63 2.91-7.54 3.6s-6.11 1.04-9.6 1.04c-1.49 0-2.97-.05-4.44-.15-1.47-.1-2.95-.25-4.44-.46V88.07ZM98.24 48.33c-.61-1.79-1.5-3.36-2.67-4.7-1.17-1.34-2.55-2.44-4.16-3.3-1.61-.86-3.39-1.5-5.36-1.9-1.96-.41-4.06-.61-6.29-.61-1.52 0-3 .09-4.44.28-1.44.19-2.79.48-4.06.89-1.27.41-2.45.91-3.53 1.5-1.08.59-2.07 1.28-2.97 2.06-.9.78-1.66 1.65-2.29 2.61-.63.97-1.13 2.02-1.5 3.17h37.26ZM70.7 81.97c-3.5-.63-6.73-1.53-9.67-2.72-2.94-1.18-5.57-2.6-7.87-4.26-2.3-1.66-4.25-3.53-5.84-5.61-1.59-2.08-2.82-4.34-3.68-6.78-.86-2.44-1.29-5.02-1.29-7.77s.42-5.35 1.27-7.82c.85-2.47 2.05-4.74 3.61-6.83 1.55-2.08 3.44-3.96 5.66-5.63 2.22-1.68 4.7-3.1 7.44-4.26 2.74-1.17 5.74-2.07 8.99-2.72 3.25-.64 6.72-.96 10.41-.96 3.42 0 6.71.3 9.87.91 3.16.61 6.12 1.52 8.86 2.72 2.74 1.2 5.22 2.71 7.44 4.52 2.22 1.81 4.12 3.91 5.71 6.29 1.59 2.39 2.82 5.09 3.68 8.1.86 3.01 1.31 6.36 1.34 10.05H61.29c.37 1.18.92 2.29 1.63 3.32.71 1.03 1.58 1.98 2.62 2.84 1.03.86 2.19 1.62 3.48 2.26 1.29.64 2.69 1.18 4.21 1.6 1.52.42 3.12.74 4.8.96 1.68.22 3.46.33 5.36.33 2.1 0 4.23-.14 6.4-.43s4.29-.75 6.37-1.4c2.08-.64 4.09-1.45 6.01-2.41 1.93-.97 3.72-2.06 5.38-3.28l7.11 10.2c-2.23 1.66-4.59 3.1-7.08 4.32-2.49 1.22-5.09 2.23-7.82 3.02-2.73.79-5.57 1.39-8.56 1.78-2.98.39-6.02.58-9.14.58-4.06 0-7.85-.31-11.35-.94M126.16 1.63h17.41v79.71h-17.41zM157.08 1.63h17.41v79.71h-17.41zM210.79 79.4l-30.16-50.97h19.55l20.46 35.28 21.32-35.28h18.89l-43.92 72.45h-19.04l12.9-21.48z"/>
  <path d="M254.4 28.43h18.99l16.6 36.55 17.05-36.55h18.84l17.06 36.55 16.6-36.55h18.94l-24.78 52.9h-19.09l-18.12-38.89-18.13 38.89h-19.09l-24.87-52.9zM423.58 69.07c1.78-.32 3.42-.77 4.92-1.34 1.51-.58 2.86-1.28 4.06-2.13 1.2-.85 2.23-1.81 3.07-2.89.84-1.08 1.5-2.29 1.98-3.63.47-1.34.71-2.77.71-4.29s-.24-2.94-.71-4.26c-.47-1.32-1.14-2.53-1.98-3.63-.85-1.1-1.87-2.07-3.07-2.92-1.2-.84-2.56-1.57-4.06-2.16-1.5-.59-3.15-1.04-4.95-1.35-1.79-.3-3.69-.46-5.69-.46s-3.88.15-5.66.46c-1.78.3-3.43.75-4.95 1.35-1.52.59-2.89 1.31-4.11 2.16-1.22.85-2.25 1.82-3.1 2.92-.85 1.1-1.49 2.29-1.93 3.58-.44 1.28-.66 2.71-.66 4.26s.22 3.01.66 4.34c.44 1.34 1.08 2.55 1.93 3.63.85 1.08 1.88 2.05 3.1 2.89s2.59 1.56 4.11 2.13c1.52.58 3.17 1.02 4.95 1.34 1.78.32 3.66.48 5.66.48s3.93-.16 5.71-.48m-16.56 12.9c-3.39-.63-6.51-1.52-9.37-2.67-2.86-1.15-5.41-2.56-7.66-4.21-2.25-1.66-4.16-3.54-5.74-5.64-1.57-2.1-2.78-4.38-3.63-6.83-.84-2.45-1.27-5.07-1.27-7.84s.42-5.43 1.27-7.87c.85-2.44 2.06-4.7 3.63-6.78 1.58-2.08 3.49-3.95 5.74-5.61 2.25-1.66 4.81-3.07 7.66-4.24 2.86-1.17 5.98-2.07 9.37-2.72 3.38-.64 6.99-.96 10.81-.96s7.53.32 10.92.96c3.38.64 6.51 1.55 9.37 2.72 2.86 1.17 5.42 2.58 7.69 4.24 2.27 1.66 4.19 3.53 5.76 5.61 1.57 2.08 2.77 4.35 3.58 6.8s1.22 5.07 1.22 7.84-.41 5.39-1.22 7.84-2.01 4.73-3.58 6.83c-1.58 2.1-3.5 3.98-5.76 5.64-2.27 1.66-4.83 3.06-7.69 4.21-2.86 1.15-5.97 2.04-9.34 2.67-3.37.63-7.02.94-10.94.94s-7.43-.31-10.81-.94M466.1 28.43h17.41V46.2c1.22-4.2 2.81-7.6 4.77-10.21 1.96-2.6 4.12-4.61 6.47-6.01 2.35-1.41 4.82-2.27 7.41-2.59 2.59-.32 5.12-.26 7.59.18v16.09c-1.69-.44-3.53-.74-5.51-.91-1.98-.17-3.94-.13-5.89.13-1.95.25-3.82.72-5.61 1.39-1.79.68-3.39 1.6-4.77 2.77-1.39 1.17-2.48 2.65-3.27 4.44-.79 1.79-1.19 3.88-1.19 6.25v23.61H466.1V28.43ZM518.6 1.63h17.41v79.71H518.6zM589.65 69.17c1.71-.29 3.31-.7 4.8-1.24 1.49-.54 2.87-1.22 4.14-2.03 1.27-.81 2.36-1.77 3.28-2.87.91-1.1 1.62-2.34 2.13-3.7.51-1.37.76-2.89.76-4.54s-.25-3.11-.76-4.44c-.51-1.34-1.22-2.57-2.13-3.68-.91-1.12-2-2.08-3.28-2.89-1.27-.81-2.65-1.49-4.14-2.03-1.49-.54-3.09-.96-4.8-1.24-1.71-.29-3.44-.43-5.2-.43s-3.58.14-5.25.43c-1.68.29-3.28.7-4.8 1.24s-2.9 1.22-4.14 2.03c-1.24.81-2.31 1.77-3.22 2.87-.91 1.1-1.62 2.33-2.13 3.68-.51 1.35-.76 2.84-.76 4.47s.25 3.17.76 4.54 1.22 2.6 2.13 3.7c.91 1.1 1.99 2.06 3.22 2.87 1.23.81 2.62 1.5 4.14 2.06 1.52.56 3.12.97 4.8 1.24 1.67.27 3.43.41 5.25.41s3.5-.14 5.2-.43m-20.41 12.83c-2.69-.59-5.21-1.46-7.56-2.61-2.35-1.15-4.49-2.56-6.42-4.21-1.93-1.66-3.6-3.53-5.03-5.61-1.42-2.08-2.52-4.36-3.3-6.83-.78-2.47-1.17-5.13-1.17-7.97s.39-5.41 1.17-7.89c.78-2.49 1.88-4.77 3.3-6.85s3.1-3.93 5.03-5.56c1.93-1.62 4.07-3.01 6.42-4.16 2.35-1.15 4.87-2.03 7.56-2.64 2.69-.61 5.46-.91 8.3-.91 2.54 0 4.85.21 6.93.63 2.08.42 4 1.03 5.76 1.83 1.76.8 3.36 1.73 4.8 2.79 1.44 1.07 2.72 2.28 3.83 3.63 1.12 1.35 2.1 2.8 2.94 4.34.84 1.54 1.54 3.16 2.08 4.85V1.62h17.41v79.71h-17.41v-16.5c-.85 2.5-2 4.87-3.45 7.08-1.46 2.22-3.26 4.14-5.41 5.76-2.15 1.63-4.67 2.9-7.56 3.83-2.89.93-6.2 1.39-9.92 1.39-2.84 0-5.61-.29-8.3-.89"/>
</svg>