<svg xmlns="http://www.w3.org/2000/svg" viewBox="0 0 363.5 122.26" fill="currentColor">
  <path d="M13.01 118.65c-2.31 0-4.27-.62-5.89-1.87-1.61-1.25-2.96-3.02-4.01-5.33-1.06-2.31-1.85-5.07-2.35-8.31C.25 99.91 0 96.27 0 92.2c0-7.2.42-14.52 1.25-21.95.83-7.43 2.08-14.58 3.74-21.46 1.66-6.87 3.62-13.01 5.89-18.42 2.26-5.4 4.8-9.69 7.61-12.88 2.81-3.18 5.89-4.78 9.21-4.78 2.22 0 4.11.62 5.68 1.87 1.57 1.25 2.86 3 3.88 5.26 1.01 2.26 1.78 4.96 2.28 8.1.51 3.14.76 6.69.76 10.66 0 7.11-.44 14.42-1.32 21.95-.88 7.52-2.12 14.75-3.74 21.67-1.61 6.92-3.55 13.13-5.81 18.62s-4.78 9.83-7.55 13.01c-2.77 3.19-5.72 4.78-8.86 4.78Zm.7-8.3c1.11 0 2.42-1.48 3.95-4.43 1.52-2.95 3.07-6.94 4.64-11.98 1.57-5.03 3.02-10.73 4.36-17.1 1.34-6.37 2.4-12.99 3.19-19.87.78-6.87 1.18-13.59 1.18-20.14 0-3.6-.16-6.55-.48-8.86-.32-2.31-.78-3.97-1.38-4.98s-1.36-1.52-2.28-1.52c-1.29 0-2.75 1.43-4.36 4.29-1.62 2.86-3.19 6.76-4.71 11.7-1.52 4.94-2.93 10.55-4.22 16.82-1.29 6.28-2.33 12.85-3.11 19.73-.79 6.88-1.18 13.69-1.18 20.42 0 3.69.16 6.72.48 9.07.32 2.35.81 4.09 1.45 5.19.65 1.11 1.48 1.66 2.49 1.66ZM52.06 108.27c-2.49 0-4.62-.78-6.37-2.35s-3.07-4.02-3.95-7.34c-.88-3.32-1.32-7.61-1.32-12.88 0-5.54.37-11.42 1.11-17.65.74-6.23 1.8-12.37 3.18-18.41 1.38-6.05 3.09-11.51 5.12-16.41 2.03-4.89 4.36-8.79 6.99-11.7s5.47-4.36 8.52-4.36c3.6 0 6.3 1.55 8.1 4.64 1.8 3.09 2.7 7.64 2.7 13.64 0 1.57-.09 3.49-.28 5.75-.19 2.26-.46 4.18-.83 5.75l-8.86-.69c.37-2.77.64-5.12.83-7.06.18-1.94.23-3.55.14-4.85.09-2.58-.09-4.57-.55-5.95-.46-1.38-1.2-2.08-2.22-2.08-1.38 0-2.77 1.29-4.15 3.88-1.38 2.58-2.72 6.05-4.01 10.38-1.29 4.34-2.45 9.11-3.46 14.33-1.02 5.22-1.85 10.52-2.49 15.92-.65 5.4-.97 10.45-.97 15.16 0 3.05.14 5.54.42 7.48.28 1.94.69 3.39 1.25 4.36s1.15 1.45 1.8 1.45c1.2 0 2.35-1.04 3.46-3.12 1.11-2.08 2.17-5.07 3.18-9 1.02-3.92 2.01-8.58 2.98-13.98.97-5.4 1.92-11.42 2.84-18.07l8.86.83c-.83 8.03-1.92 15.25-3.25 21.67-1.34 6.42-2.96 11.93-4.85 16.55-1.89 4.62-3.99 8.12-6.3 10.52-2.31 2.4-4.85 3.6-7.62 3.6ZM88.47 116.99c-2.49 0-4.57-.85-6.23-2.56-1.66-1.71-2.93-4.18-3.81-7.41-.88-3.23-1.32-7.11-1.32-11.63 0-6.28.37-12.69 1.11-19.25.74-6.55 1.82-12.83 3.25-18.83 1.43-6 3.19-11.35 5.26-16.06 2.08-4.71 4.38-8.44 6.92-11.21 2.54-2.77 5.33-4.15 8.38-4.15 2.58 0 4.66.83 6.23 2.49 1.57 1.66 2.81 4.08 3.74 7.27.92 3.19 1.38 7.18 1.38 11.98 0 6.09-.39 12.37-1.18 18.83-.79 6.46-1.87 12.69-3.25 18.69-1.38 6-3.09 11.4-5.12 16.2-2.03 4.8-4.34 8.61-6.92 11.42-2.58 2.82-5.4 4.22-8.44 4.22Zm.83-9.14c1.2 0 2.47-1.22 3.81-3.67 1.34-2.45 2.68-5.79 4.02-10.04 1.34-4.25 2.54-8.98 3.6-14.19 1.06-5.22 1.94-10.68 2.63-16.41.69-5.72 1.04-11.26 1.04-16.62 0-2.68-.14-4.89-.42-6.65-.28-1.75-.65-3.07-1.11-3.95-.46-.87-1.06-1.31-1.8-1.31-1.2 0-2.49 1.2-3.88 3.6-1.38 2.4-2.75 5.68-4.09 9.83-1.34 4.15-2.54 8.82-3.6 13.98-1.06 5.17-1.92 10.62-2.56 16.34-.65 5.73-.97 11.35-.97 16.89 0 2.59.14 4.78.42 6.58.28 1.8.69 3.19 1.25 4.15.55.97 1.11 1.45 1.66 1.45ZM112.97 108.27c.74-4.8 1.59-10.34 2.56-16.62.97-6.28 1.98-12.88 3.05-19.8 1.06-6.92 2.1-13.82 3.12-20.7 1.01-6.87 1.98-13.41 2.91-19.59.92-6.18 1.73-11.63 2.42-16.34.69-4.71 1.22-8.31 1.59-10.8h9.41c-.46 2.58-1.09 6.28-1.87 11.08-.79 4.8-1.64 10.27-2.56 16.41-.93 6.14-1.89 12.65-2.91 19.52-1.02 6.88-2.03 13.78-3.05 20.7s-1.99 13.48-2.91 19.66c-.92 6.18-1.75 11.68-2.49 16.48h-9.28Zm7.76-80.99 1.25-8.44h21.18l-1.52 8.44h-20.91ZM133.47 115.68c.65-4.06 1.45-9.09 2.42-15.09s1.98-12.44 3.05-19.31c1.06-6.88 2.1-13.78 3.11-20.7 1.02-6.92 2.01-13.38 2.98-19.38.97-6 1.68-10.98 2.15-14.95h9.42c-.65 3.79-1.41 8.51-2.29 14.19-.88 5.68-1.85 11.86-2.91 18.55-1.06 6.69-2.12 13.48-3.19 20.35-1.06 6.88-2.06 13.45-2.98 19.73-.92 6.28-1.75 11.82-2.49 16.62h-9.28Zm19.52-94.01c-1.94 0-3.35-.44-4.22-1.32-.88-.87-1.32-2.05-1.32-3.53 0-1.75.62-3.37 1.87-4.84 1.25-1.48 3.07-2.22 5.47-2.22 1.84 0 3.21.51 4.08 1.52.88 1.02 1.32 2.22 1.32 3.6 0 1.94-.58 3.55-1.73 4.85-1.16 1.29-2.98 1.94-5.47 1.94ZM151.6 122.26c.74-4.24 1.57-9.37 2.49-15.37.92-6 1.91-12.51 2.98-19.52 1.06-7.01 2.17-14.19 3.32-21.53 1.15-7.34 2.24-14.51 3.25-21.53 1.01-7.01 1.98-13.5 2.91-19.45.92-5.95 1.66-11.05 2.22-15.3h9.55c-.65 4.71-1.55 10.64-2.7 17.79-1.16 7.15-2.38 14.95-3.67 23.4s-2.61 17.01-3.94 25.68c-1.34 8.68-2.63 16.98-3.88 24.92-1.25 7.94-2.29 14.91-3.12 20.91h-9.42ZM170.01 112.7c.74-4.24 1.57-9.37 2.49-15.37.92-6 1.91-12.51 2.98-19.52 1.06-7.01 2.17-14.19 3.32-21.53 1.15-7.34 2.24-14.51 3.25-21.53 1.01-7.01 1.98-13.5 2.91-19.45.92-5.95 1.66-11.05 2.22-15.3h9.55c-.65 4.71-1.55 10.64-2.7 17.79-1.16 7.15-2.38 14.95-3.67 23.4s-2.61 17.01-3.94 25.68c-1.34 8.68-2.63 16.98-3.88 24.92-1.25 7.94-2.29 14.91-3.12 20.91H170ZM202.97 113.53c-2.49 0-4.57-.85-6.23-2.56-1.66-1.71-2.93-4.18-3.81-7.41-.88-3.23-1.32-7.11-1.32-11.63 0-6.28.37-12.69 1.11-19.25.74-6.55 1.82-12.83 3.25-18.83 1.43-6 3.19-11.35 5.26-16.06 2.08-4.71 4.38-8.44 6.92-11.21 2.54-2.77 5.33-4.15 8.38-4.15 2.58 0 4.66.83 6.23 2.49 1.57 1.66 2.81 4.08 3.74 7.27.92 3.19 1.38 7.18 1.38 11.98 0 6.09-.39 12.37-1.18 18.83-.79 6.46-1.87 12.69-3.25 18.69-1.38 6-3.09 11.4-5.12 16.2-2.03 4.8-4.34 8.61-6.92 11.42-2.58 2.82-5.4 4.22-8.44 4.22Zm.83-9.14c1.2 0 2.47-1.22 3.81-3.67 1.34-2.45 2.68-5.79 4.02-10.04 1.34-4.25 2.54-8.98 3.6-14.19 1.06-5.22 1.94-10.68 2.63-16.41.69-5.72 1.04-11.26 1.04-16.62 0-2.68-.14-4.89-.42-6.65-.28-1.75-.65-3.07-1.11-3.95-.46-.87-1.06-1.31-1.8-1.31-1.2 0-2.49 1.2-3.88 3.6-1.38 2.4-2.75 5.68-4.09 9.83-1.34 4.15-2.54 8.82-3.6 13.98-1.06 5.17-1.92 10.62-2.56 16.34-.65 5.73-.97 11.35-.97 16.89 0 2.59.14 4.78.42 6.58.28 1.8.69 3.19 1.25 4.15.55.97 1.11 1.45 1.66 1.45ZM249 120.39c1.94-7.11 4.04-14.86 6.3-23.26 2.26-8.4 4.61-17.17 7.06-26.31 2.44-9.14 4.94-18.3 7.48-27.48s4.96-18.11 7.27-26.79h12.6c-.09 4.15-.32 9.51-.69 16.06-.37 6.55-.78 13.75-1.25 21.6-.46 7.85-.92 15.81-1.38 23.88-.46 8.08-.88 15.78-1.25 23.12-.37 7.34-.65 13.73-.83 19.18h-9.69c.37-3.14.76-7.41 1.18-12.81.42-5.4.9-11.47 1.45-18.21.55-6.74 1.02-13.61 1.38-20.63l4.15 2.35c-.37 0-1.22-.02-2.56-.07-1.34-.04-2.82-.07-4.43-.07h-4.36c-1.29 0-2.17.05-2.63.14l.55-9.28c.37.09 1.2.14 2.49.14h4.36c1.61 0 3.09-.02 4.43-.07 1.34-.04 2.24-.07 2.7-.07l-3.74 2.49c.83-8.59 1.38-15.76 1.66-21.53.28-5.77.51-11.01.69-15.71h-.55c-1.38 5.08-2.86 10.43-4.43 16.06-1.57 5.63-3.32 12.69-5.26 21.18l-.28 4.15c-1.57 6.28-3.14 12.58-4.71 18.9-1.57 6.32-3.05 12.32-4.43 18s-2.63 10.68-3.74 15.02h-9.55ZM290.82 106.64c.55-3.32 1.25-7.61 2.08-12.88.83-5.26 1.75-11.08 2.77-17.45 1.02-6.37 2.08-12.99 3.19-19.87 1.11-6.87 2.17-13.61 3.19-20.21 1.01-6.6 1.94-12.74 2.77-18.42s1.52-10.45 2.08-14.33l1.94 8.31h-8.17c-1.48 0-2.59.05-3.32.14l1.38-9.14h25.34l-1.39 9.14c-.65-.09-1.75-.14-3.32-.14h-9l5.82-8.31c-.65 3.88-1.46 8.65-2.42 14.33-.97 5.68-1.96 11.82-2.98 18.42-1.02 6.6-2.03 13.34-3.05 20.21-1.02 6.88-2.01 13.5-2.98 19.87-.97 6.37-1.82 12.18-2.56 17.45-.74 5.26-1.38 9.55-1.94 12.88h-9.41ZM309.37 119.66c4.06-11.35 8.1-22.64 12.11-33.85 4.02-11.21 8.29-22.91 12.81-35.1l4.43 4.02c-2.12 6.65-4.23 13.66-6.3 21.04-2.08 7.39-4.15 14.79-6.23 22.22s-4.13 14.65-6.16 21.67h-10.66Zm29.49 0c-.27-5.91-.55-12.3-.83-19.18-.27-6.87-.6-13.91-.97-21.11-.37-7.2-.78-14.12-1.24-20.77l-2.63-3.46c-.74-4.52-1.59-9.14-2.56-13.85-.97-4.71-1.92-9.25-2.84-13.64-.92-4.38-1.8-8.33-2.63-11.84h9.41c.83 4.15 1.73 9 2.7 14.54.97 5.54 1.96 11.17 2.98 16.89l3.18 2.77c.65 12.09 1.41 23.95 2.28 35.58.88 11.63 1.78 22.98 2.7 34.06h-9.55Zm3.46-63.13-4.29-5.4c2.4-5.54 4.96-11.35 7.68-17.44 2.72-6.09 5.19-12.05 7.41-17.86h10.38c-3.6 6.83-7.18 13.69-10.73 20.56-3.55 6.88-7.04 13.59-10.45 20.15Z"/>
</svg>