<svg xmlns="http://www.w3.org/2000/svg" viewBox="0 0 517.43 104.28" fill="currentColor">
  <path d="M69.5 43.1c-2.95 2.95-6.8 4.42-11.55 4.42H29.57v10.16c0 1.06.4 1.94 1.19 2.64.79.71 1.72 1.06 2.77 1.06h1.98c1.32 0 2.35.4 3.1 1.19.75.79 1.12 1.8 1.12 3.04v34.45c0 1.32-.38 2.36-1.12 3.1-.75.75-1.78 1.12-3.1 1.12H4.22c-1.32 0-2.36-.37-3.1-1.12-.75-.75-1.12-1.78-1.12-3.1V90.03c0-1.23.37-2.24 1.12-3.04.75-.79 1.78-1.19 3.1-1.19h3.96c1.06 0 1.91-.33 2.57-.99.66-.66.99-1.56.99-2.71V53.19c0-1.06-.33-1.93-.99-2.64-.66-.7-1.52-1.06-2.57-1.06H4.22c-1.32 0-2.36-.37-3.1-1.12C.37 47.62 0 46.59 0 45.27V3.96c0-1.23.37-2.2 1.12-2.9C1.87.35 2.82 0 3.96 0h20.46c1.23 0 2.2.35 2.9 1.06.7.71 1.06 1.67 1.06 2.9V19.8h1.32v-1.32c0-5.54 1.69-10.01 5.08-13.4C38.17 1.69 42.63 0 48.18 0h7.26c5.54 0 10.01 1.7 13.4 5.08 3.39 3.39 5.08 7.85 5.08 13.4v13.07c0 4.75-1.47 8.6-4.42 11.55Zm-38.88-5.28c.7.75 1.63 1.12 2.77 1.12h19.14c1.06 0 1.91-.33 2.57-.99.66-.66.99-1.52.99-2.57v-6.6c0-1.06-.33-1.93-.99-2.64-.66-.7-1.52-1.06-2.57-1.06H33.39c-1.14 0-2.07.35-2.77 1.06-.71.71-1.06 1.58-1.06 2.64v6.6c0 .88.35 1.7 1.06 2.44Zm5.55 5.61h18.22l10.69 15.05c.79 1.15 1.47 1.91 2.05 2.31.57.4 1.3.59 2.18.59 1.5 0 2.64.38 3.43 1.12.79.75 1.19 1.78 1.19 3.1v34.45c0 1.32-.38 2.36-1.12 3.1-.75.75-1.78 1.12-3.1 1.12H45.29c-1.32 0-2.35-.37-3.1-1.12-.75-.75-1.12-1.78-1.12-3.1V90.02c0-1.23.37-2.24 1.12-3.04.75-.79 1.78-1.19 3.1-1.19h14.65c1.14 0 1.87-.37 2.18-1.12.31-.75.11-1.65-.59-2.71L36.19 43.42ZM106.92 47.52v8.58c0 1.58.48 2.86 1.45 3.83.97.97 2.24 1.45 3.83 1.45h18.48c1.58 0 2.86-.48 3.83-1.45.97-.97 1.45-2.24 1.45-3.83V42.24c0-1.23.37-2.2 1.12-2.9.75-.7 1.69-1.06 2.84-1.06h9.9c1.23 0 2.2.35 2.9 1.06.7.71 1.06 1.67 1.06 2.9v58.08c0 1.14-.35 2.09-1.06 2.84-.71.75-1.67 1.12-2.9 1.12H125.4c-5.54 0-10.01-1.69-13.4-5.08-3.39-3.39-5.08-7.85-5.08-13.4V69.96h-1.32v30.36c0 1.14-.35 2.09-1.06 2.84-.71.75-1.67 1.12-2.9 1.12H81.18c-1.14 0-2.09-.37-2.84-1.12-.75-.75-1.12-1.69-1.12-2.84V89.76c0-1.23.37-2.2 1.12-2.9.75-.7 1.69-1.06 2.84-1.06h2.64c1.58 0 2.86-.48 3.83-1.45.97-.97 1.45-2.24 1.45-3.83V54.78c0-1.58-.48-2.86-1.45-3.83-.97-.97-2.24-1.45-3.83-1.45h-2.64c-1.14 0-2.09-.37-2.84-1.12-.75-.75-1.12-1.69-1.12-2.84V3.96c0-1.23.37-2.2 1.12-2.9C79.09.36 80.03 0 81.18 0h20.46c1.23 0 2.2.35 2.9 1.06.7.71 1.06 1.67 1.06 2.9V19.8h1.32v-1.32c0-5.54 1.69-10.01 5.08-13.4C115.39 1.69 119.85 0 125.4 0h24.42c1.23 0 2.2.35 2.9 1.06.7.71 1.06 1.67 1.06 2.9v26.4c0 1.14-.35 2.09-1.06 2.84-.71.75-1.67 1.12-2.9 1.12h-9.9c-1.15 0-2.09-.37-2.84-1.12-.75-.75-1.12-1.69-1.12-2.84 0-1.58-.49-2.86-1.45-3.83-.97-.97-2.24-1.45-3.83-1.45H112.2c-1.58 0-2.86.48-3.83 1.45-.97.97-1.45 2.24-1.45 3.83v8.58h5.02c1.58 0 2.86-.48 3.83-1.45.97-.97 1.45-2.24 1.45-3.83V29.7h11.88v27.06h-11.88V52.8c0-1.58-.49-2.86-1.45-3.83-.97-.97-2.24-1.45-3.83-1.45h-5.02ZM215.42 49.5c-2.2 0-3.65 1.1-4.36 3.3l-9.24 28.38c-.53 1.67-.57 2.86-.13 3.56.44.71 1.23 1.06 2.38 1.06h17.69c1.23 0 2.2.35 2.9 1.06.7.71 1.06 1.67 1.06 2.9v10.56c0 1.14-.35 2.09-1.06 2.84-.71.75-1.67 1.12-2.9 1.12h-54.25c-1.14 0-2.09-.37-2.84-1.12-.75-.75-1.12-1.69-1.12-2.84V65.34c0-1.23.37-2.2 1.12-2.9.75-.7 1.69-1.06 2.84-1.06h4.36c1.23 0 2.05-.37 2.44-1.12.4-.75.33-1.91-.2-3.5l-8.84-28.38c-.62-2.11-1.8-3.21-3.56-3.3h-.66c-1.14 0-2.09-.37-2.84-1.12-.75-.75-1.12-1.69-1.12-2.84V3.96c0-1.23.37-2.2 1.12-2.9.75-.7 1.69-1.06 2.84-1.06h33.66c1.23 0 2.2.35 2.9 1.06.7.71 1.06 1.67 1.06 2.9v41.58c0 1.15-.35 2.09-1.06 2.84-.71.75-1.67 1.12-2.9 1.12h-.79c-1.5 0-2.53.42-3.1 1.25-.57.84-.64 1.96-.2 3.37l5.41 17.16 13.6-41.58c.44-1.41.35-2.53-.26-3.37-.62-.84-1.67-1.25-3.17-1.25h-2.24c-1.14 0-2.09-.37-2.84-1.12-.75-.75-1.12-1.69-1.12-2.84V3.96c0-1.23.37-2.2 1.12-2.9.75-.7 1.69-1.06 2.84-1.06h24.42c1.23 0 2.2.35 2.9 1.06.7.71 1.06 1.67 1.06 2.9v41.58c0 1.15-.35 2.09-1.06 2.84-.71.75-1.67 1.12-2.9 1.12h-12.94ZM291.26 5.08c3.39 3.39 5.08 7.85 5.08 13.4V85.8c0 5.54-1.7 10.01-5.08 13.4s-7.85 5.08-13.4 5.08H254.1c-5.54 0-10.01-1.69-13.4-5.08-3.39-3.39-5.08-7.85-5.08-13.4V18.48c0-5.54 1.69-10.01 5.08-13.4C244.09 1.69 248.55 0 254.1 0h23.76c5.54 0 10.01 1.7 13.4 5.08ZM277.07 79.2c.97-.97 1.45-2.24 1.45-3.83V49.63c0-1.58-.48-2.86-1.45-3.83-.97-.97-2.24-1.45-3.83-1.45h-14.52c-1.58 0-2.86.48-3.83 1.45-.97.97-1.45 2.24-1.45 3.83v25.74c0 1.58.48 2.86 1.45 3.83.97.97 2.24 1.45 3.83 1.45h14.52c1.58 0 2.86-.48 3.83-1.45ZM330.79 84.35c.97.97 2.24 1.45 3.83 1.45h7.92c1.58 0 2.86-.48 3.83-1.45.97-.97 1.45-2.24 1.45-3.83v-5.94c0-1.23.37-2.2 1.12-2.9.75-.7 1.69-1.06 2.84-1.06h9.9c1.23 0 2.2.35 2.9 1.06.7.71 1.06 1.67 1.06 2.9v25.74c0 1.14-.35 2.09-1.06 2.84-.71.75-1.67 1.12-2.9 1.12h-13.86c-5.54 0-10.01-1.69-13.4-5.08-3.39-3.39-5.08-7.85-5.08-13.4h-1.32v14.52c0 1.14-.35 2.09-1.06 2.84-.71.75-1.67 1.12-2.9 1.12H303.6c-1.14 0-2.09-.37-2.84-1.12-.75-.75-1.12-1.69-1.12-2.84V65.34c0-1.23.37-2.2 1.12-2.9.75-.7 1.69-1.06 2.84-1.06h2.64c1.58 0 2.86-.48 3.83-1.45.97-.97 1.45-2.24 1.45-3.83V30.36c0-1.58-.48-2.86-1.45-3.83-.97-.97-2.24-1.45-3.83-1.45h-2.64c-1.14 0-2.09-.37-2.84-1.12-.75-.75-1.12-1.69-1.12-2.84V3.96c0-1.23.37-2.2 1.12-2.9.75-.7 1.69-1.06 2.84-1.06h37.62c1.23 0 2.2.35 2.9 1.06.7.71 1.06 1.67 1.06 2.9v41.58c0 1.15-.35 2.09-1.06 2.84-.71.75-1.67 1.12-2.9 1.12h-6.6c-1.58 0-2.86.48-3.83 1.45-.97.97-1.45 2.24-1.45 3.83v25.74c0 1.58.48 2.86 1.45 3.83ZM420.68 49.5c-2.2 0-3.65 1.1-4.36 3.3l-9.24 28.38c-.53 1.67-.57 2.86-.13 3.56.44.71 1.23 1.06 2.38 1.06h17.69c1.23 0 2.2.35 2.9 1.06.7.71 1.06 1.67 1.06 2.9v10.56c0 1.14-.35 2.09-1.06 2.84-.71.75-1.67 1.12-2.9 1.12h-54.25c-1.14 0-2.09-.37-2.84-1.12-.75-.75-1.12-1.69-1.12-2.84V65.34c0-1.23.37-2.2 1.12-2.9.75-.7 1.69-1.06 2.84-1.06h4.36c1.23 0 2.05-.37 2.44-1.12.4-.75.33-1.91-.2-3.5l-8.84-28.38c-.62-2.11-1.8-3.21-3.56-3.3h-.66c-1.14 0-2.09-.37-2.84-1.12-.75-.75-1.12-1.69-1.12-2.84V3.96c0-1.23.37-2.2 1.12-2.9.75-.7 1.69-1.06 2.84-1.06h33.66c1.23 0 2.2.35 2.9 1.06.7.71 1.06 1.67 1.06 2.9v41.58c0 1.15-.35 2.09-1.06 2.84-.71.75-1.67 1.12-2.9 1.12h-.79c-1.5 0-2.53.42-3.1 1.25-.57.84-.64 1.96-.2 3.37l5.41 17.16 13.6-41.58c.44-1.41.35-2.53-.26-3.37-.62-.84-1.67-1.25-3.17-1.25h-2.24c-1.14 0-2.09-.37-2.84-1.12-.75-.75-1.12-1.69-1.12-2.84V3.96c0-1.23.37-2.2 1.12-2.9.75-.7 1.69-1.06 2.84-1.06h24.42c1.23 0 2.2.35 2.9 1.06.7.71 1.06 1.67 1.06 2.9v41.58c0 1.15-.35 2.09-1.06 2.84-.71.75-1.67 1.12-2.9 1.12H420.7ZM470.58 66.53v8.58c0 1.58.48 2.86 1.45 3.83.97.97 2.24 1.45 3.83 1.45h18.48c1.58 0 2.86-.48 3.83-1.45.97-.97 1.45-2.24 1.45-3.83v-3.04c0-1.23.37-2.2 1.12-2.9.75-.7 1.69-1.06 2.84-1.06h9.9c1.23 0 2.2.35 2.9 1.06.7.71 1.06 1.67 1.06 2.9v28.25c0 1.14-.35 2.09-1.06 2.84-.71.75-1.67 1.12-2.9 1.12h-24.42c-5.54 0-10.01-1.69-13.4-5.08-3.39-3.39-5.08-7.85-5.08-13.4v-3.43h-1.32v17.95c0 1.14-.35 2.09-1.06 2.84-.71.75-1.67 1.12-2.9 1.12h-20.46c-1.14 0-2.09-.37-2.84-1.12-.75-.75-1.12-1.69-1.12-2.84V70.75c0-1.23.37-2.2 1.12-2.9.75-.7 1.69-1.06 2.84-1.06h2.64c1.58 0 2.86-.48 3.83-1.45.97-.97 1.45-2.24 1.45-3.83V35.77c0-1.58-.48-2.86-1.45-3.83-.97-.97-2.24-1.45-3.83-1.45h-2.64c-1.14 0-2.09-.37-2.84-1.12-.75-.75-1.12-1.69-1.12-2.84V3.96c0-1.23.37-2.2 1.12-2.9.75-.7 1.69-1.06 2.84-1.06h20.46c1.23 0 2.2.35 2.9 1.06.7.71 1.06 1.67 1.06 2.9v34.85h1.32V18.48c0-5.54 1.69-10.01 5.08-13.4 3.39-3.39 7.85-5.08 13.4-5.08h24.42c1.23 0 2.2.35 2.9 1.06.7.71 1.06 1.67 1.06 2.9v56.23c0 1.14-.35 2.09-1.06 2.84-.71.75-1.67 1.12-2.9 1.12h-9.9c-1.15 0-2.09-.37-2.84-1.12-.75-.75-1.12-1.69-1.12-2.84V49.37c0-1.58-.49-2.86-1.45-3.83-.97-.97-2.24-1.45-3.83-1.45h-18.48c-1.58 0-2.86.48-3.83 1.45-.97.97-1.45 2.24-1.45 3.83v8.58h5.02c1.58 0 2.86-.48 3.83-1.45.97-.97 1.45-2.24 1.45-3.83v-3.96h11.88v27.06h-11.88v-3.96c0-1.58-.49-2.86-1.45-3.83-.97-.97-2.24-1.45-3.83-1.45h-5.02Z"/>
</svg>