<svg xmlns="http://www.w3.org/2000/svg" viewBox="0 0 376.88 125.16" fill="currentColor">
  <path d="m25.26 45.36-8.78-16.01H9.51v16.01H0V.67h20.9c9.31 0 15.01 6.1 15.01 14.41s-4.96 12.13-9.78 13.27l10.05 17.02H25.26ZM19.5 8.84H9.52v12.33h9.98c3.82 0 6.7-2.41 6.7-6.16s-2.88-6.16-6.7-6.16ZM44.08 45.36V.67h9.51v44.69h-9.51ZM75.98 45.36 58.69.67h10.85l12.39 34.37L94.27.67h10.85L87.9 45.36H75.97ZM110.28 45.36V.67h31.62v8.17h-22.11v9.72h21.64v8.17h-21.64v10.39h22.11v8.24h-31.62ZM175.6 45.36l-8.78-16.01h-6.97v16.01h-9.51V.67h20.9c9.31 0 15.01 6.1 15.01 14.41s-4.96 12.13-9.78 13.27l10.05 17.02H175.6Zm-5.76-36.52h-9.98v12.33h9.98c3.82 0 6.7-2.41 6.7-6.16s-2.88-6.16-6.7-6.16ZM242.35 45.36l-2.81-7.71h-19.97l-2.81 7.71h-10.45L223.59.67h11.93l17.22 44.69h-10.38Zm-12.8-36.45-7.44 20.5h14.81l-7.37-20.5ZM283.15 45.36l-8.78-16.01h-6.97v16.01h-9.51V.67h20.9c9.31 0 15.01 6.1 15.01 14.41s-4.96 12.13-9.78 13.27l10.05 17.02h-10.92Zm-5.76-36.52h-9.98v12.33h9.98c3.82 0 6.7-2.41 6.7-6.16s-2.88-6.16-6.7-6.16ZM311.62 45.36V9.04h-13.07V.67h35.64v8.38h-13v36.31h-9.58ZM342.98 31.83c3.15 3.28 8.04 6.03 14.2 6.03 5.23 0 7.77-2.48 7.77-5.02 0-3.35-3.89-4.49-9.05-5.69-7.3-1.68-16.68-3.69-16.68-13.67 0-7.44 6.43-13.47 16.95-13.47 7.1 0 13 2.14 17.42 6.23l-5.29 6.97c-3.62-3.35-8.44-4.89-12.8-4.89s-6.57 1.88-6.57 4.56c0 3.02 3.75 3.95 8.91 5.16 7.37 1.67 16.75 3.89 16.75 13.8 0 8.17-5.83 14.34-17.89 14.34-8.58 0-14.74-2.88-18.96-7.1l5.23-7.24ZM0 124.36V79.67h17.62c14 0 23.72 8.91 23.72 22.38s-9.71 22.31-23.72 22.31H0Zm9.51-8.38h8.11c8.84 0 14-6.37 14-13.94s-4.82-14-14-14H9.51v27.94ZM51.09 124.36V79.67h31.62v8.17H60.6v9.72h21.64v8.17H60.6v10.39h22.11v8.24H51.09ZM123.95 124.36l-21.31-30.02v30.02h-9.51V79.67h9.78l20.7 28.94V79.67h9.51v44.69h-9.18ZM155.28 124.36V88.05h-13.07v-8.38h35.64v8.38h-13v36.31h-9.58ZM186.93 124.36V79.67h9.51v44.69h-9.51ZM210.42 110.83c3.15 3.28 8.04 6.03 14.2 6.03 5.23 0 7.77-2.48 7.77-5.02 0-3.35-3.89-4.49-9.05-5.69-7.3-1.68-16.68-3.69-16.68-13.67 0-7.44 6.43-13.47 16.95-13.47 7.1 0 13 2.14 17.42 6.23l-5.29 6.97c-3.62-3.35-8.44-4.89-12.8-4.89s-6.57 1.88-6.57 4.56c0 3.02 3.75 3.95 8.91 5.16 7.37 1.67 16.75 3.89 16.75 13.8 0 8.17-5.83 14.34-17.89 14.34-8.58 0-14.74-2.88-18.96-7.1l5.23-7.24ZM261.31 124.36V88.05h-13.07v-8.38h35.64v8.38h-13v36.31h-9.58ZM318.22 124.36l-8.78-16.01h-6.97v16.01h-9.51V79.67h20.9c9.31 0 15.01 6.1 15.01 14.41s-4.96 12.13-9.78 13.27l10.05 17.02h-10.92Zm-5.76-36.52h-9.98v12.33h9.98c3.82 0 6.7-2.41 6.7-6.16s-2.88-6.16-6.7-6.16ZM350.28 124.36v-18.29l-17.22-26.4h10.85l11.12 17.96 10.99-17.96h10.85l-17.08 26.4v18.29h-9.51Z"/>
</svg>