<svg xmlns="http://www.w3.org/2000/svg" viewBox="0 0 349.7 144.18" fill="currentColor">
  <path d="M116.74 9.97c-.06.07-.14.13-.22.19-.08.05-.17.1-.28.13-.11.03-.22.06-.35.08-.13.02-.26.03-.39.03-.31 0-.62-.04-.94-.12-.31-.08-.62-.2-.91-.36-.29-.16-.57-.36-.83-.59-.26-.24-.51-.5-.73-.8l-2.36 2.07c.29.41.64.79 1.04 1.11s.85.61 1.34.84c.49.23 1.01.41 1.56.53.56.12 1.13.19 1.71.19.47 0 .93-.04 1.36-.12.43-.08.84-.2 1.21-.36.37-.16.72-.36 1.03-.58.31-.23.57-.49.79-.79.22-.3.38-.63.51-.99.12-.36.18-.75.18-1.16 0-.59-.1-1.09-.29-1.52-.19-.42-.46-.79-.8-1.11-.34-.31-.76-.58-1.24-.8-.49-.22-1.02-.41-1.59-.57l-1.21-.33c-.24-.06-.45-.13-.64-.21-.19-.08-.34-.16-.46-.26s-.21-.2-.27-.31c-.06-.11-.09-.24-.09-.39 0-.09.01-.18.04-.26.03-.08.07-.15.13-.22s.13-.13.21-.18c.08-.05.18-.1.28-.13.1-.04.21-.07.32-.08.11-.02.23-.03.35-.03.26 0 .52.03.77.09s.49.15.71.27.43.26.63.44.38.38.53.6l2.34-2.11c-.2-.26-.41-.49-.64-.7-.23-.21-.48-.39-.75-.55-.26-.16-.54-.3-.83-.42-.29-.12-.59-.21-.89-.28-.3-.07-.6-.12-.91-.15-.3-.03-.61-.05-.91-.05-.45 0-.89.04-1.32.13-.43.08-.83.2-1.19.36-.37.16-.7.35-1 .58-.3.23-.56.49-.78.78-.22.29-.38.61-.5.95-.12.35-.18.71-.18 1.11 0 .55.09 1.03.28 1.46.18.43.45.8.79 1.11s.74.59 1.21.81c.47.22.99.41 1.56.56l1.17.34c.28.07.52.15.72.24.2.08.37.17.5.27.13.09.23.2.3.32s.1.26.1.43c0 .11-.02.21-.05.3-.03.09-.08.17-.14.24ZM127.79 8.72h1.67c.82 0 1.54-.1 2.16-.3.62-.2 1.13-.49 1.54-.86.41-.37.71-.81.92-1.33.21-.52.31-1.09.31-1.72s-.1-1.2-.31-1.72c-.2-.52-.51-.96-.92-1.34-.41-.37-.92-.66-1.54-.86s-1.34-.3-2.16-.3h-4.96v12.69h3.29V8.72Zm0-5.76h1.3c.31 0 .58.03.81.09s.42.16.56.28.25.28.32.48c.07.2.11.42.11.68s-.04.49-.11.69c-.07.19-.18.35-.32.48s-.33.22-.56.28c-.23.06-.5.09-.81.09h-1.3V2.96ZM141.44 8.11h.38l3.64 4.87h3.94l-4.07-5.21c.45-.12.86-.29 1.2-.51.35-.22.64-.48.86-.79.23-.3.4-.64.52-1.03s.18-.8.18-1.24c0-.61-.1-1.16-.31-1.64-.21-.49-.51-.9-.92-1.24-.41-.34-.91-.6-1.52-.77-.6-.18-1.31-.26-2.12-.26h-5.09v12.69h3.29V8.11Zm0-5.15h1.49c.29 0 .54.03.75.09.21.06.38.14.52.25s.24.24.31.4c.07.16.1.34.1.55s-.03.39-.1.55-.17.29-.31.41-.32.19-.52.25-.46.08-.75.08h-1.49V2.98ZM161.48 10.13h-5.54v-2.1h4.81V5.17h-4.81V3.14h5.49V.28h-8.78v12.7h8.83v-2.85zM173.28 10.24l.91 2.74h3.47L173.04.29h-3.97l-4.63 12.69h3.47l.92-2.74h4.45Zm-2.22-6.86 1.35 4.02h-2.71l1.36-4.02ZM187.27 12.77c.6-.14 1.16-.34 1.66-.6.5-.26.95-.58 1.35-.95.4-.37.73-.79 1-1.27.27-.47.48-.99.62-1.55.15-.56.22-1.15.22-1.78s-.07-1.22-.22-1.78c-.14-.56-.35-1.07-.62-1.55-.28-.47-.61-.89-1-1.26s-.84-.69-1.35-.95c-.5-.26-1.06-.46-1.66-.6-.6-.14-1.25-.21-1.93-.21h-4.66v12.69h4.66c.68 0 1.32-.07 1.93-.21Zm-3.3-9.65h1.38c.33 0 .65.03.94.1s.56.16.8.29.46.29.65.49.36.42.49.69c.13.26.23.56.3.88.07.32.1.68.1 1.07s-.04.74-.1 1.07c-.07.32-.17.62-.3.88-.13.26-.3.49-.49.69-.19.2-.41.36-.65.49-.24.13-.51.23-.8.29s-.6.1-.94.1h-1.38V3.12ZM204.58 12.98h3.29V3.14h3.83V.28h-10.95v2.86h3.83v9.84zM218.67 8.08h4.51v4.9h3.29V.28h-3.29v4.83h-4.51V.28h-3.29v12.7h3.29v-4.9zM239.95 10.13h-5.54v-2.1h4.81V5.17h-4.81V3.14h5.49V.28h-8.77v12.7h8.82v-2.85zM349.58 52.24c-1.16-12.94-17.35-19.54-28.73-14.15-5.51 2.61-9.86 5.86-12.49 9.81-2.93 4.41-.84 9.6-3.15 13.76-3.3 5.95-7.56 10.6-17.41 10.97-15.48.81-1.64-9.87-2.57-18.52v-.13c-.31-8.19-12.41-14.02-18.3-8.5-2.51 2.35-5.46 3.69-6.79 6.09-2.45 4.45-1.3 8.59-1.47 13.64-.16 4.8.36 11.28 3.61 15.09 1.56 1.82 3.61 3.48 5.85 4.26 8.5 2.98 13.58 3.64 13.8 7.72.29 5.33-4.37 9.61-13.67 12.46-7 2.14-13.03 3.83-18.33 5.2-8.14 2.1-15 .47-20.59 1.52-9.36 1.76-15.11 8.71-26.17 6.76-5.84-1.03-17.71 4.11-21.22 15.38-7 22.53 33.83 2.67 42.45-1.05 3.18-1.37 6.39-2.85 9.43-4.48 13.91-7.48 30.16-9.65 44.42-16.55 14.35-6.95 21.45-13.74 32.54-25.25 2.79-2.64 5.4-4.5 10.18-7.3 4.31-2.52 7.68-6.09 11.14-6.59 8.83-1.28 18.76-5.65 17.46-20.13ZM96.71 32.91c-5.96-5.13-17.14-2.04-23.51 1.51-4.52 2.52-8.48 6.5-9.86 11.61-1.37 8.23 2.8 12.89-1.89 21.77-1.28 2.34-3.68 2.67-6.93 7.3-1.67 2.38-3.58 8.19-5.88 10.23-6.19 5.51-12.42 6.41-18.41 6.04l-.12-.03c-6.66-1.84-2.6-10.58-2.81-15.96-.01-4.48-3.66-8.11-8.03-8.62-7.38-1.18-15.13 3.15-17.72 10.12-3.5 8.65-.93 18.84 6.24 24.69 4.43 3.31 8.9 5.25 13.36 6.1 5.37 1.02 9.07 2.26 17.14-.08 7.59-2.2 7.65-4.61 11.9-7.22 10.63-6.53 13.06-13.44 21.47-21.24 6.03-5.59 17.45-6.41 23.21-17.6 1.98-3.85 1.65-9.36 3.95-12.97 3.53-5.55 1.95-12.19-2.09-15.66ZM9.6 87.47l.12.09c-.12.14-.23.06-.12-.09Zm33.91 7.81v-.05l.05.04h-.05ZM142.88 39.59c-6.58-.12-11.56.55-17.32 3.65-2.82 1.51-6.26 2.11-10.05 4.56-5.97 3.86-6.49 7.65-8.49 9.63-4.93 4.89-5.83 7.4-7.78 14.22v.12c-1.6 6.86-1.24 13.2.49 18.43.73 2.22 1.1 4.96 2.12 6.83 2.31 4.27 5 4.11 7.69 5.48 10.74 5.48 19.3.15 26.52 2.59 5.09 1.72 4.71 8.33 12.4 7.41 11.5-1.38 15.11-13.93 13.23-23.1-.57-2.78-2.28-5.41-5.07-7.12-11.6-6.94-21.88 4.92-30.48 1.14-4.56-2.25-8.05-8.8-8.51-13.95-.34-3.86 2.68-4.2 5.73-3.4 4.61 1.21 8.75 3.67 13.48 4.65 7.68 1.6 16.72-.42 22.54-5.88 1.61-1.52 2.91-3.42 3.48-5.56.71-2.69.23-5.59-.93-8.12-3.46-7.51-10.98-11.44-19.04-11.59Zm-3.22 17.24c-.09 0-.17-.01-.23-.02-1.37-.1-5.36-.36-5.32-2.46.03-1.43 2.82-1.7 3.85-1.77 1.64-.1 3.31-.03 4.95.15.97.11 4.19.63 4.37 1.87.37 2.51-5.85 2.33-7.61 2.22Zm19.52 7.82.02-.06.04.05h-.06Z"/>
  <path d="M210.64 65.08c-1.78 5.67-1.9 11.38-4.65 16.64-9.96 19.04-.04 21.99 2.63 23.01 4.11 1.57 13.25 1.88 16.5-1.14 2.41-2.24 3.47-6.39 3.13-9.24-.26-2.21-1.18-5.01-1.09-7.26.17-4.15 1.55-5.76 3.81-8.08 2.95-3.16 5.33-4.91 9.12-6.88 8.27-4.31 13.66-17.67 10.78-28.21-1.8-6.57-8.07-11.01-16.66-10.78 0 0-8.74-.23-13.53 14-1.76 5.22-8.4 12.68-10.05 17.93ZM198.18 64.13c3.52-8.46 14.46-14 13.6-23.71-1.15-6.75-4.49-10.29-15.05-10.21h-.11c-9.33-.22-14.08 5.56-16.88 13.49-1.19 3.37-3.46 5.62-4.14 9.46-.57 3.19.41 7.94-.07 11.08-1.13 7.48-2.32 14.37-5.11 18.42-4.17 6.62-3.23 17.62 5.27 19.22 3.33.57 9.9-.71 12.81-2.81 10.18-7.75 4.79-23.56 9.68-34.96Z"/>
</svg>