<svg xmlns="http://www.w3.org/2000/svg" viewBox="0 0 643.31 108.25" fill="currentColor">
  <path d="M643.28 99.64c0 .12.03.27.03.42v6.97c0 .87-.34 1.2-1.21 1.21H2.2c-.37 0-.73.01-1.1 0-.67-.02-1.09-.41-1.09-1.06-.01-2.39 0-4.77 0-7.16 0-.52.36-.9.89-.96.24-.03.49-.01.73-.01H640.33c.52 0 1.04.02 1.56 0 .56-.03 1.02.1 1.39.59ZM446.4 57.12v14.4c0 .18.01.37 0 .55-.05.55-.39.89-.93.94-.18.02-.37 0-.55 0h-7.34c-1.17 0-1.43-.26-1.43-1.47V6.78c0-1.31.04-2.63-.01-3.94-.05-1.27.5-1.59 1.56-1.58 5.93.03 11.86.01 17.8.01 1.9 0 3.79-.03 5.69.03 3.67.13 7.19.93 10.37 2.81 2.89 1.71 5.14 4.09 6.67 7.11 1.28 2.53 2.02 5.21 2.19 8.04.08 1.4.17 2.81.13 4.2-.05 1.53-.43 3.01-1.01 4.43-1.38 3.4-3.44 6.3-6.27 8.64-.72.6-1.54 1.09-2.36 1.56-.89.52-.99.65-.67 1.58.77 2.25 1.57 4.48 2.34 6.73.9 2.59 1.77 5.18 2.67 7.77.93 2.67 1.89 5.34 2.81 8.01.45 1.29.83 2.6 1.28 3.9.53 1.53 1.09 3.04 1.63 4.56.08.23.16.46.22.69.22.84-.24 1.53-1.1 1.63-.15.02-.31 0-.46 0h-7.8c-1.1 0-1.47-.26-1.82-1.28l-3.51-9.99c-.86-2.44-1.73-4.88-2.57-7.33-.89-2.56-1.75-5.12-2.63-7.68-.51-1.49-1.04-2.98-1.56-4.47-.07-.2-.16-.4-.26-.59-.17-.34-.47-.48-.82-.48-2.87.02-5.74.06-8.61.07-.85 0-1.71-.04-2.56-.06-.56-.02-1 .34-1.07.9-.02.18 0 .37 0 .55v14.49Zm-.13-36.02v9.17c0 .21-.02.43 0 .64.07.58.43.93 1.02 1 .12.01.24 0 .37 0 4.16 0 8.31.02 12.47-.02.93-.01 1.9-.14 2.78-.45 3.61-1.27 5.99-3.75 6.99-7.48.42-1.59.22-3.22.18-4.83 0-.06-.03-.12-.04-.18-.46-2.27-1.51-4.22-3.21-5.8-1.86-1.72-4.04-2.7-6.6-2.71-4.19-.02-8.37 0-12.56 0-.18 0-.37-.01-.55.01-.41.06-.78.44-.84.86-.02.18 0 .37 0 .55v9.26ZM297.6 37.05c0-6.24-.01-12.47 0-18.71 0-2.28.52-4.48 1.34-6.59.89-2.3 2.2-4.34 3.96-6.09 1.89-1.88 4.12-3.22 6.61-4.15 2.3-.86 4.7-1.28 7.14-1.43 1.4-.08 2.8-.09 4.2-.04 2.28.07 4.57.14 6.79.74 2.76.75 5.34 1.87 7.58 3.69 1.8 1.46 3.24 3.21 4.34 5.25 1 1.86 1.68 3.83 2.03 5.91.17 1.02.24 2.06.24 3.1.02 12.23.02 24.46 0 36.69 0 2.83-.61 5.54-1.84 8.13-.89 1.87-2.04 3.53-3.49 4.98-1.62 1.61-3.5 2.84-5.6 3.73-2.49 1.05-5.09 1.66-7.8 1.73-1.89.05-3.79.17-5.67.1-3.68-.14-7.26-.8-10.53-2.64-2.4-1.35-4.43-3.09-6.01-5.38-1.39-2.02-2.29-4.23-2.85-6.59-.42-1.79-.47-3.62-.47-5.46.02-5.66 0-11.31 0-16.97h.01Zm34.11.15V19.87c0-.7-.05-1.41-.2-2.09-.63-3.01-2.24-5.38-4.86-7.02-1.56-.98-3.29-1.47-5.11-1.54-1.4-.06-2.81.01-4.2.11-3.21.22-5.72 1.72-7.62 4.29-1.42 1.91-1.96 4.11-1.96 6.44-.02 11.22-.01 22.44 0 33.65 0 1 .05 2.02.25 3 .42 2.12 1.42 3.95 3.02 5.43 1.93 1.79 4.15 2.86 6.83 2.85 1.25 0 2.51-.01 3.76 0 2.58.03 4.76-.98 6.64-2.66 2.39-2.14 3.45-4.9 3.46-8.07.02-5.69 0-11.37 0-17.06ZM63.3 37.06c0-11.37.01-22.75-.02-34.12 0-1.51.53-1.71 1.72-1.69 2.29.04 4.59.01 6.88.01.21 0 .43-.02.64.01.7.09 1.01.44 1.04 1.15V30.4c0 .18-.01.37 0 .55.05.54.4.9.93.95.18.02.37 0 .55 0h22.47c.18 0 .37.02.55 0 .53-.07.89-.42.97-.95.03-.24.01-.49.01-.73V2.33c.02-.72.26-.98.97-1.06.12-.01.24 0 .37 0h7.34c.24 0 .49 0 .73.03.41.06.65.31.72.72.03.18.01.37.01.55v67.97c0 .37 0 .73.04 1.1.08.76-.26 1.24-.99 1.35-.15.02-.31.01-.46.01h-7.06c-.18 0-.37.01-.55-.02-.83-.13-1.08-.42-1.08-1.28V46.11c0-1.25 0-2.51-.01-3.76-.01-.92-.35-1.25-1.29-1.25H74.76c-.91 0-1.2.29-1.21 1.21-.01 1.31 0 2.63 0 3.94v25.22c0 1.18-.31 1.5-1.52 1.51-2.42.01-4.83 0-7.25 0-.3 0-.6-.08-.89-.16-.39-.11-.61-.39-.61-.81V37.06ZM409.35 29.14v25.87c0 3.13-.67 6.13-2.08 8.91-1.43 2.83-3.5 5.13-6.21 6.82-1.32.83-2.73 1.46-4.21 1.98-2.51.88-5.09 1.21-7.72 1.23-1.86.01-3.73.07-5.59-.04-3.74-.22-7.26-1.19-10.43-3.26-3.24-2.13-5.55-4.99-6.89-8.64-.83-2.26-1.25-4.57-1.25-6.97V2.66c0-.15-.01-.31 0-.46.04-.66.3-.91.98-.94h8.26c.65.04.86.21.97.86.04.27.03.55.03.82 0 17.12 0 34.25-.01 51.37 0 2.11.49 4.06 1.65 5.8 1.79 2.68 4.27 4.31 7.5 4.68 2.19.24 4.38.27 6.56-.15 1.89-.36 3.49-1.26 4.89-2.53 1.8-1.64 2.81-3.73 3.24-6.11.06-.33.05-.67.05-1.01V3.07c0-.34-.02-.68.03-1.01.1-.63.5-.87 1.17-.85 1.01.03 2.02.03 3.02.03 1.68 0 3.36-.02 5.04-.03.5 0 .87.27.96.77.04.24.02.49.02.73v26.42ZM567.35 37.11V2.52c.02-.89.32-1.21 1.2-1.26.21-.01.43 0 .64 0h37.24c.28 0 .55-.01.83.01.77.07 1.02.33 1.02 1.11.01 1.1 0 2.2 0 3.3v3.49c0 .85-.35 1.21-1.22 1.25-.21.01-.43 0-.64 0h-27.43c-.21 0-.43-.02-.64.01-.44.06-.69.35-.74.8-.02.18 0 .37 0 .55V30.77c.02.81.31 1.11 1.1 1.14h.55c7.46 0 14.92.01 22.38-.01 1.06 0 1.54.1 1.52 1.56-.04 2.08 0 4.16 0 6.24 0 1.03-.32 1.36-1.36 1.36h-22.29c-.39 0-.79-.04-1.16.04-.53.11-.69.37-.72.91v20.64c.04.67.34.98 1.04 1.02.15.01.31 0 .46 0h27.8c.12 0 .25-.01.37 0 .75.06 1.02.34 1.02 1.11v4.59c0 .83.01 1.65 0 2.48 0 .69-.36 1.07-1.04 1.15-.18.02-.37 0-.55 0h-37.61c-.33 0-.67-.02-.99-.11-.56-.15-.73-.41-.74-1-.01-.34 0-.67 0-1.01V37.12ZM137.77 37.12V2.63c0-.12-.01-.24 0-.37.03-.58.23-.84.79-.95.24-.05.49-.04.73-.04h37.79c.21 0 .43 0 .64.02.64.07.98.43.98 1.09.01 2.29.01 4.59 0 6.88 0 .76-.37 1.11-1.12 1.17-.15.01-.31 0-.46 0h-28.16c-.55.03-.92.33-1.02.87-.04.24-.03.49-.03.73v18.25c0 1.33.3 1.63 1.6 1.63h22.57c.15 0 .31-.01.46 0 .62.04 1 .43 1.01 1.06.02.83 0 1.65 0 2.48v4.04c0 1.28-.28 1.57-1.54 1.57H150.27c-.42 0-.85-.04-1.27 0-.72.07-1.03.4-1.09 1.1-.02.18 0 .37 0 .55 0 6.42.02 12.84-.01 19.26 0 1.27.39 1.71 1.74 1.7 9.2-.03 18.41-.02 27.61-.02h.37c.69.04 1.08.4 1.08 1.09.01 2.35.01 4.71 0 7.06 0 .7-.45 1.13-1.14 1.18-.15.01-.31 0-.46 0h-37.61c-.21 0-.43.02-.64 0-.57-.06-1.18-.41-1.1-1.2.04-.33 0-.67 0-1.01V37.1ZM251.92 74.15c-1.8-.07-3.57-.11-5.33-.23-2.23-.16-4.41-.65-6.47-1.52-3.1-1.31-5.66-3.35-7.53-6.18-.59-.89-1.08-1.83-1.6-2.76-.12-.21-.18-.45-.24-.69-.14-.54-.03-.86.47-1.14.85-.48 1.72-.91 2.58-1.36 1.15-.6 2.31-1.21 3.47-1.81.38-.19.77-.38 1.16-.53.87-.33 1.11-.24 1.58.53.48.78.87 1.62 1.42 2.34 2.03 2.62 4.64 4.19 8.05 4.18 1.68 0 3.37.04 5.05 0 4.18-.12 7.09-2.22 8.99-5.88.71-1.36 1.01-2.82 1.03-4.32.02-2.2-.68-4.17-2.02-5.94-1.17-1.54-2.69-2.65-4.3-3.65-2.33-1.45-4.84-2.57-7.34-3.71-1.71-.78-3.43-1.57-5.11-2.42-1.36-.69-2.7-1.42-4-2.22-1.88-1.16-3.62-2.5-5.09-4.15-2.1-2.36-3.55-5.08-4.21-8.2-.41-1.92-.6-3.86-.51-5.82.11-2.36.5-4.67 1.42-6.85.7-1.65 1.5-3.27 2.69-4.64 1-1.16 2.07-2.26 3.32-3.14 2.45-1.73 5.18-2.77 8.13-3.35 2.57-.51 5.16-.52 7.75-.45 2.75.08 5.45.53 8.03 1.57 2.7 1.1 5.02 2.72 6.93 4.94 1.02 1.19 1.82 2.52 2.64 3.84.11.18.19.38.26.58.25.75.18 1.03-.51 1.45-.68.41-1.4.75-2.11 1.1-1.61.81-3.22 1.61-4.83 2.41-.19.09-.39.17-.59.24-.54.18-.85.09-1.19-.37-.16-.22-.3-.46-.43-.7-1.15-2.13-2.79-3.78-4.93-4.88-.95-.49-1.99-.77-3.05-.91-1.46-.19-2.92-.17-4.38.01-1.44.18-2.77.7-4.01 1.46-1.82 1.12-3.19 2.68-4.02 4.62-1.03 2.4-1.32 4.87-.15 7.35.46.98 1.14 1.79 1.89 2.55 1.37 1.39 3.02 2.36 4.73 3.26 2.51 1.33 5.15 2.38 7.73 3.55 3.56 1.62 7.04 3.41 10.05 5.95 2.78 2.34 4.88 5.18 6.1 8.64.58 1.65.99 3.33 1.1 5.07.09 1.49.19 2.99.13 4.48-.1 2.36-.62 4.64-1.6 6.81-.95 2.12-2.27 3.97-3.96 5.55-1.81 1.68-3.89 2.92-6.2 3.79-1.81.68-3.68 1.11-5.59 1.29-1.79.17-3.59.17-5.37.25ZM513.81 37.24c0 5.87-.02 11.74 0 17.61.02 4.83 3.3 8.77 7.77 10.02.61.17 1.26.24 1.89.26 1.56.04 3.12.06 4.68 0 2.18-.08 4.08-.92 5.7-2.37 1.12-1 2.12-2.11 2.79-3.48.15-.3.35-.57.55-.84.38-.52.76-.62 1.34-.33 1.2.59 2.39 1.18 3.58 1.78 1.09.55 2.17 1.13 3.25 1.69.16.08.34.15.49.25.65.41.76.74.4 1.45-2.01 4.04-4.94 7.17-9.09 9.04-1.61.72-3.32 1.16-5.07 1.47-2.82.49-5.66.33-8.5.34-2.52 0-4.98-.41-7.36-1.17-2.1-.68-4.07-1.67-5.79-3.07-3.42-2.77-5.58-6.34-6.39-10.68-.25-1.31-.36-2.65-.49-3.98-.04-.45.08-.91.08-1.37 0-11.44.02-22.87 0-34.31 0-2.56.35-5.03 1.24-7.43.99-2.64 2.5-4.93 4.58-6.86 1.87-1.73 4.05-2.92 6.42-3.78 2.49-.91 5.07-1.3 7.71-1.32 1.83-.01 3.67-.03 5.5.03 3.53.12 6.88.95 9.95 2.74 2.06 1.2 3.77 2.8 5.16 4.72.68.93 1.29 1.93 1.85 2.94.66 1.19.5 1.64-.71 2.25-1.96.99-3.93 1.97-5.9 2.95-.35.18-.71.34-1.07.52-.45.22-.84.1-1.13-.28-.23-.29-.45-.58-.62-.9-.84-1.56-1.97-2.87-3.43-3.87-1.42-.98-2.98-1.66-4.74-1.74-1.4-.06-2.81-.15-4.21-.1-4.52.14-7.75 2.3-9.63 6.4-.56 1.22-.8 2.56-.8 3.91v17.52ZM0 1.86c.41-.5.89-.61 1.43-.6 1.16.02 2.32 0 3.49 0h34.67c.51 0 1 0 1.27.51.09.18.13.4.13.6v6.96c0 .56-.16.89-.68 1.03-.26.07-.54.06-.82.07H27.2c-.15 0-.31-.01-.46 0-.56.03-.91.32-1.01.87-.05.27-.03.55-.03.82v59.71c-.02.71-.33 1.07-1.02 1.16-.21.03-.43 0-.64 0h-6.88c-.21 0-.43.02-.64 0-.62-.1-1.07-.56-.98-1.11.02-.12 0-.24 0-.37V11.8c-.02-1.05-.32-1.36-1.36-1.36H1.61c-.21 0-.43.02-.64 0-.63-.09-.96-.47-.98-1.1V1.88ZM643.31 67.8c.03 3.45-2.77 6.3-6.28 6.27-3.81-.03-6.39-2.79-6.31-6.5.07-3.34 2.69-6.16 6.46-6.07 1.71.04 3.23.61 4.39 1.94 1.09 1.25 1.84 2.64 1.75 4.36Z"/>
</svg>